<?xml version="1.0" encoding="utf-8" standalone="no"?>
<!DOCTYPE svg PUBLIC "-//W3C//DTD SVG 1.1//EN"
  "http://www.w3.org/Graphics/SVG/1.1/DTD/svg11.dtd">
<svg xmlns:xlink="http://www.w3.org/1999/xlink" width="864pt" height="576pt" viewBox="0 0 864 576" xmlns="http://www.w3.org/2000/svg" version="1.1">
 <metadata>
  <rdf:RDF xmlns:dc="http://purl.org/dc/elements/1.1/" xmlns:cc="http://creativecommons.org/ns#" xmlns:rdf="http://www.w3.org/1999/02/22-rdf-syntax-ns#">
   <cc:Work>
    <dc:type rdf:resource="http://purl.org/dc/dcmitype/StillImage"/>
    <dc:date>2024-09-02T16:53:43.344169</dc:date>
    <dc:format>image/svg+xml</dc:format>
    <dc:creator>
     <cc:Agent>
      <dc:title>Matplotlib v3.8.0, https://matplotlib.org/</dc:title>
     </cc:Agent>
    </dc:creator>
   </cc:Work>
  </rdf:RDF>
 </metadata>
 <defs>
  <style type="text/css">*{stroke-linejoin: round; stroke-linecap: butt}</style>
 </defs>
 <g id="figure_1">
  <g id="patch_1">
   <path d="M 0 576 
L 864 576 
L 864 0 
L 0 0 
z
" style="fill: #ffffff"/>
  </g>
  <g id="axes_1">
   <g id="patch_2">
    <path d="M 108 512.64 
L 777.6 512.64 
L 777.6 69.12 
L 108 69.12 
z
" style="fill: #ffffff"/>
   </g>
   <g id="matplotlib.axis_1">
    <g id="xtick_1">
     <g id="line2d_1">
      <path d="M 138.436364 512.64 
L 138.436364 69.12 
" clip-path="url(#p01b923dee1)" style="fill: none; stroke: #b0b0b0; stroke-width: 0.8; stroke-linecap: square"/>
     </g>
     <g id="line2d_2">
      <defs>
       <path id="mf41428dc16" d="M 0 0 
L 0 3.5 
" style="stroke: #000000; stroke-width: 0.8"/>
      </defs>
      <g>
       <use xlink:href="#mf41428dc16" x="138.436364" y="512.64" style="stroke: #000000; stroke-width: 0.8"/>
      </g>
     </g>
     <g id="text_1">
      <!-- 0 -->
      <g transform="translate(135.504332 527.63375) scale(0.1 -0.1)">
       <defs>
        <path id="MicrosoftYaHei-30" d="M 284 2325 
Q 284 3606 709 4264 
Q 1134 4922 1941 4922 
Q 3478 4922 3478 2441 
Q 3478 1216 3045 567 
Q 2613 -81 1831 -81 
Q 1094 -81 689 534 
Q 284 1150 284 2325 
z
M 909 2353 
Q 909 425 1888 425 
Q 2850 425 2850 2384 
Q 2850 4413 1906 4413 
Q 909 4413 909 2353 
z
" transform="scale(0.015625)"/>
       </defs>
       <use xlink:href="#MicrosoftYaHei-30"/>
      </g>
     </g>
    </g>
    <g id="xtick_2">
     <g id="line2d_3">
      <path d="M 214.909639 512.64 
L 214.909639 69.12 
" clip-path="url(#p01b923dee1)" style="fill: none; stroke: #b0b0b0; stroke-width: 0.8; stroke-linecap: square"/>
     </g>
     <g id="line2d_4">
      <g>
       <use xlink:href="#mf41428dc16" x="214.909639" y="512.64" style="stroke: #000000; stroke-width: 0.8"/>
      </g>
     </g>
     <g id="text_2">
      <!-- 25 -->
      <g transform="translate(209.045577 527.63375) scale(0.1 -0.1)">
       <defs>
        <path id="MicrosoftYaHei-32" d="M 2666 3572 
Q 2666 3963 2419 4186 
Q 2172 4409 1747 4409 
Q 1447 4409 1140 4256 
Q 834 4103 569 3819 
L 569 4413 
Q 806 4659 1107 4790 
Q 1409 4922 1816 4922 
Q 2472 4922 2872 4570 
Q 3272 4219 3272 3619 
Q 3272 3084 3026 2693 
Q 2781 2303 2188 1894 
Q 1581 1475 1376 1294 
Q 1172 1113 1090 947 
Q 1009 781 1009 544 
L 3416 544 
L 3416 0 
L 372 0 
L 372 241 
Q 372 659 486 951 
Q 600 1244 862 1520 
Q 1125 1797 1681 2184 
Q 2250 2584 2458 2886 
Q 2666 3188 2666 3572 
z
" transform="scale(0.015625)"/>
        <path id="MicrosoftYaHei-35" d="M 3294 1494 
Q 3294 784 2823 350 
Q 2353 -84 1559 -84 
Q 878 -84 544 119 
L 544 744 
Q 1034 425 1544 425 
Q 2050 425 2361 704 
Q 2672 984 2672 1447 
Q 2672 1909 2348 2167 
Q 2025 2425 1434 2425 
Q 978 2425 613 2384 
L 791 4841 
L 3053 4841 
L 3053 4303 
L 1306 4303 
L 1206 2931 
L 1647 2950 
Q 2416 2950 2855 2567 
Q 3294 2184 3294 1494 
z
" transform="scale(0.015625)"/>
       </defs>
       <use xlink:href="#MicrosoftYaHei-32"/>
       <use xlink:href="#MicrosoftYaHei-35" x="58.642578"/>
      </g>
     </g>
    </g>
    <g id="xtick_3">
     <g id="line2d_5">
      <path d="M 291.382915 512.64 
L 291.382915 69.12 
" clip-path="url(#p01b923dee1)" style="fill: none; stroke: #b0b0b0; stroke-width: 0.8; stroke-linecap: square"/>
     </g>
     <g id="line2d_6">
      <g>
       <use xlink:href="#mf41428dc16" x="291.382915" y="512.64" style="stroke: #000000; stroke-width: 0.8"/>
      </g>
     </g>
     <g id="text_3">
      <!-- 50 -->
      <g transform="translate(285.518852 527.63375) scale(0.1 -0.1)">
       <use xlink:href="#MicrosoftYaHei-35"/>
       <use xlink:href="#MicrosoftYaHei-30" x="58.642578"/>
      </g>
     </g>
    </g>
    <g id="xtick_4">
     <g id="line2d_7">
      <path d="M 367.85619 512.64 
L 367.85619 69.12 
" clip-path="url(#p01b923dee1)" style="fill: none; stroke: #b0b0b0; stroke-width: 0.8; stroke-linecap: square"/>
     </g>
     <g id="line2d_8">
      <g>
       <use xlink:href="#mf41428dc16" x="367.85619" y="512.64" style="stroke: #000000; stroke-width: 0.8"/>
      </g>
     </g>
     <g id="text_4">
      <!-- 75 -->
      <g transform="translate(361.992128 527.63375) scale(0.1 -0.1)">
       <defs>
        <path id="MicrosoftYaHei-37" d="M 3422 4463 
Q 2659 3131 2223 1998 
Q 1788 866 1684 0 
L 1047 0 
Q 1163 853 1594 1947 
Q 2025 3041 2747 4300 
L 347 4300 
L 347 4841 
L 3422 4841 
L 3422 4463 
z
" transform="scale(0.015625)"/>
       </defs>
       <use xlink:href="#MicrosoftYaHei-37"/>
       <use xlink:href="#MicrosoftYaHei-35" x="58.642578"/>
      </g>
     </g>
    </g>
    <g id="xtick_5">
     <g id="line2d_9">
      <path d="M 444.329466 512.64 
L 444.329466 69.12 
" clip-path="url(#p01b923dee1)" style="fill: none; stroke: #b0b0b0; stroke-width: 0.8; stroke-linecap: square"/>
     </g>
     <g id="line2d_10">
      <g>
       <use xlink:href="#mf41428dc16" x="444.329466" y="512.64" style="stroke: #000000; stroke-width: 0.8"/>
      </g>
     </g>
     <g id="text_5">
      <!-- 100 -->
      <g transform="translate(435.533372 527.63375) scale(0.1 -0.1)">
       <defs>
        <path id="MicrosoftYaHei-31" d="M 1781 0 
L 1781 4141 
Q 1638 3997 1295 3819 
Q 953 3641 663 3569 
L 663 4169 
Q 1047 4275 1484 4508 
Q 1922 4741 2156 4947 
L 2388 4947 
L 2388 0 
L 1781 0 
z
" transform="scale(0.015625)"/>
       </defs>
       <use xlink:href="#MicrosoftYaHei-31"/>
       <use xlink:href="#MicrosoftYaHei-30" x="58.642578"/>
       <use xlink:href="#MicrosoftYaHei-30" x="117.285156"/>
      </g>
     </g>
    </g>
    <g id="xtick_6">
     <g id="line2d_11">
      <path d="M 520.802741 512.64 
L 520.802741 69.12 
" clip-path="url(#p01b923dee1)" style="fill: none; stroke: #b0b0b0; stroke-width: 0.8; stroke-linecap: square"/>
     </g>
     <g id="line2d_12">
      <g>
       <use xlink:href="#mf41428dc16" x="520.802741" y="512.64" style="stroke: #000000; stroke-width: 0.8"/>
      </g>
     </g>
     <g id="text_6">
      <!-- 125 -->
      <g transform="translate(512.006647 527.63375) scale(0.1 -0.1)">
       <use xlink:href="#MicrosoftYaHei-31"/>
       <use xlink:href="#MicrosoftYaHei-32" x="58.642578"/>
       <use xlink:href="#MicrosoftYaHei-35" x="117.285156"/>
      </g>
     </g>
    </g>
    <g id="xtick_7">
     <g id="line2d_13">
      <path d="M 597.276016 512.64 
L 597.276016 69.12 
" clip-path="url(#p01b923dee1)" style="fill: none; stroke: #b0b0b0; stroke-width: 0.8; stroke-linecap: square"/>
     </g>
     <g id="line2d_14">
      <g>
       <use xlink:href="#mf41428dc16" x="597.276016" y="512.64" style="stroke: #000000; stroke-width: 0.8"/>
      </g>
     </g>
     <g id="text_7">
      <!-- 150 -->
      <g transform="translate(588.479923 527.63375) scale(0.1 -0.1)">
       <use xlink:href="#MicrosoftYaHei-31"/>
       <use xlink:href="#MicrosoftYaHei-35" x="58.642578"/>
       <use xlink:href="#MicrosoftYaHei-30" x="117.285156"/>
      </g>
     </g>
    </g>
    <g id="xtick_8">
     <g id="line2d_15">
      <path d="M 673.749292 512.64 
L 673.749292 69.12 
" clip-path="url(#p01b923dee1)" style="fill: none; stroke: #b0b0b0; stroke-width: 0.8; stroke-linecap: square"/>
     </g>
     <g id="line2d_16">
      <g>
       <use xlink:href="#mf41428dc16" x="673.749292" y="512.64" style="stroke: #000000; stroke-width: 0.8"/>
      </g>
     </g>
     <g id="text_8">
      <!-- 175 -->
      <g transform="translate(664.953198 527.63375) scale(0.1 -0.1)">
       <use xlink:href="#MicrosoftYaHei-31"/>
       <use xlink:href="#MicrosoftYaHei-37" x="58.642578"/>
       <use xlink:href="#MicrosoftYaHei-35" x="117.285156"/>
      </g>
     </g>
    </g>
    <g id="xtick_9">
     <g id="line2d_17">
      <path d="M 750.222567 512.64 
L 750.222567 69.12 
" clip-path="url(#p01b923dee1)" style="fill: none; stroke: #b0b0b0; stroke-width: 0.8; stroke-linecap: square"/>
     </g>
     <g id="line2d_18">
      <g>
       <use xlink:href="#mf41428dc16" x="750.222567" y="512.64" style="stroke: #000000; stroke-width: 0.8"/>
      </g>
     </g>
     <g id="text_9">
      <!-- 200 -->
      <g transform="translate(741.426474 527.63375) scale(0.1 -0.1)">
       <use xlink:href="#MicrosoftYaHei-32"/>
       <use xlink:href="#MicrosoftYaHei-30" x="58.642578"/>
       <use xlink:href="#MicrosoftYaHei-30" x="117.285156"/>
      </g>
     </g>
    </g>
    <g id="text_10">
     <!-- 时间步 -->
     <g transform="translate(427.8 542.113438) scale(0.1 -0.1)">
      <defs>
       <path id="MicrosoftYaHei-65f6" d="M 344 4728 
L 2500 4728 
L 2500 -366 
L 2006 -366 
L 2006 153 
L 838 153 
L 838 -441 
L 344 -441 
L 344 4728 
z
M 2706 3941 
L 4925 3941 
L 4925 5322 
L 5425 5322 
L 5425 3941 
L 6313 3941 
L 6313 3478 
L 5425 3478 
L 5425 116 
Q 5425 -722 4625 -722 
Q 4263 -722 3563 -703 
Q 3531 -478 3463 -178 
Q 4119 -228 4488 -228 
Q 4925 -228 4925 216 
L 4925 3478 
L 2706 3478 
L 2706 3941 
z
M 838 616 
L 2006 616 
L 2006 2234 
L 838 2234 
L 838 616 
z
M 2006 4266 
L 838 4266 
L 838 2684 
L 2006 2684 
L 2006 4266 
z
M 3406 2878 
Q 3906 1966 4163 1422 
Q 4000 1347 3663 1172 
Q 3419 1766 2963 2653 
L 3406 2878 
z
" transform="scale(0.015625)"/>
       <path id="MicrosoftYaHei-95f4" d="M 1863 3647 
L 4513 3647 
L 4513 553 
L 2313 553 
L 2313 166 
L 1863 166 
L 1863 3647 
z
M 2388 4453 
L 2388 4922 
L 6013 4922 
L 6013 -28 
Q 6013 -816 5119 -816 
Q 4756 -816 4169 -803 
Q 4144 -616 4069 -297 
Q 4588 -334 5056 -334 
Q 5525 -334 5525 122 
L 5525 4453 
L 2388 4453 
z
M 419 4084 
L 906 4084 
L 906 -816 
L 419 -816 
L 419 4084 
z
M 2313 997 
L 4063 997 
L 4063 1884 
L 2313 1884 
L 2313 997 
z
M 4063 3203 
L 2313 3203 
L 2313 2328 
L 4063 2328 
L 4063 3203 
z
M 744 5003 
L 1100 5322 
Q 1575 4872 1981 4447 
L 1575 4091 
Q 1194 4541 744 5003 
z
" transform="scale(0.015625)"/>
       <path id="MicrosoftYaHei-6b65" d="M 188 2997 
L 1250 2997 
L 1250 4759 
L 1750 4759 
L 1750 2997 
L 3088 2997 
L 3088 5328 
L 3588 5328 
L 3588 4416 
L 5744 4416 
L 5744 3966 
L 3588 3966 
L 3588 2997 
L 6225 2997 
L 6225 2534 
L 188 2534 
L 188 2997 
z
M 188 -441 
Q 3744 -9 5400 1872 
L 5794 1484 
Q 4013 -453 375 -891 
Q 306 -691 188 -441 
z
M 1794 2147 
L 2194 1803 
Q 1369 947 613 322 
Q 469 497 275 691 
Q 1044 1291 1794 2147 
z
M 3038 2378 
L 3538 2378 
L 3538 528 
L 3038 528 
L 3038 2378 
z
" transform="scale(0.015625)"/>
      </defs>
      <use xlink:href="#MicrosoftYaHei-65f6"/>
      <use xlink:href="#MicrosoftYaHei-95f4" x="100"/>
      <use xlink:href="#MicrosoftYaHei-6b65" x="200"/>
     </g>
    </g>
   </g>
   <g id="matplotlib.axis_2">
    <g id="ytick_1">
     <g id="line2d_19">
      <path d="M 108 482.096993 
L 777.6 482.096993 
" clip-path="url(#p01b923dee1)" style="fill: none; stroke: #b0b0b0; stroke-width: 0.8; stroke-linecap: square"/>
     </g>
     <g id="line2d_20">
      <defs>
       <path id="m7c730ab908" d="M 0 0 
L -3.5 0 
" style="stroke: #000000; stroke-width: 0.8"/>
      </defs>
      <g>
       <use xlink:href="#m7c730ab908" x="108" y="482.096993" style="stroke: #000000; stroke-width: 0.8"/>
      </g>
     </g>
     <g id="text_11">
      <!-- −1.25 -->
      <g transform="translate(73.582813 486.093868) scale(0.1 -0.1)">
       <defs>
        <path id="MicrosoftYaHei-2212" d="M 3972 1772 
L 788 1772 
L 788 2250 
L 3972 2250 
L 3972 1772 
z
" transform="scale(0.015625)"/>
        <path id="MicrosoftYaHei-2e" d="M 372 322 
Q 372 491 487 606 
Q 603 722 775 722 
Q 950 722 1065 605 
Q 1181 488 1181 322 
Q 1181 159 1065 42 
Q 950 -75 772 -75 
Q 600 -75 486 42 
Q 372 159 372 322 
z
" transform="scale(0.015625)"/>
       </defs>
       <use xlink:href="#MicrosoftYaHei-2212"/>
       <use xlink:href="#MicrosoftYaHei-31" x="74.169922"/>
       <use xlink:href="#MicrosoftYaHei-2e" x="132.8125"/>
       <use xlink:href="#MicrosoftYaHei-32" x="156.884766"/>
       <use xlink:href="#MicrosoftYaHei-35" x="215.527344"/>
      </g>
     </g>
    </g>
    <g id="ytick_2">
     <g id="line2d_21">
      <path d="M 108 424.520911 
L 777.6 424.520911 
" clip-path="url(#p01b923dee1)" style="fill: none; stroke: #b0b0b0; stroke-width: 0.8; stroke-linecap: square"/>
     </g>
     <g id="line2d_22">
      <g>
       <use xlink:href="#m7c730ab908" x="108" y="424.520911" style="stroke: #000000; stroke-width: 0.8"/>
      </g>
     </g>
     <g id="text_12">
      <!-- −1.00 -->
      <g transform="translate(73.582813 428.517786) scale(0.1 -0.1)">
       <use xlink:href="#MicrosoftYaHei-2212"/>
       <use xlink:href="#MicrosoftYaHei-31" x="74.169922"/>
       <use xlink:href="#MicrosoftYaHei-2e" x="132.8125"/>
       <use xlink:href="#MicrosoftYaHei-30" x="156.884766"/>
       <use xlink:href="#MicrosoftYaHei-30" x="215.527344"/>
      </g>
     </g>
    </g>
    <g id="ytick_3">
     <g id="line2d_23">
      <path d="M 108 366.944828 
L 777.6 366.944828 
" clip-path="url(#p01b923dee1)" style="fill: none; stroke: #b0b0b0; stroke-width: 0.8; stroke-linecap: square"/>
     </g>
     <g id="line2d_24">
      <g>
       <use xlink:href="#m7c730ab908" x="108" y="366.944828" style="stroke: #000000; stroke-width: 0.8"/>
      </g>
     </g>
     <g id="text_13">
      <!-- −0.75 -->
      <g transform="translate(73.582813 370.941703) scale(0.1 -0.1)">
       <use xlink:href="#MicrosoftYaHei-2212"/>
       <use xlink:href="#MicrosoftYaHei-30" x="74.169922"/>
       <use xlink:href="#MicrosoftYaHei-2e" x="132.8125"/>
       <use xlink:href="#MicrosoftYaHei-37" x="156.884766"/>
       <use xlink:href="#MicrosoftYaHei-35" x="215.527344"/>
      </g>
     </g>
    </g>
    <g id="ytick_4">
     <g id="line2d_25">
      <path d="M 108 309.368746 
L 777.6 309.368746 
" clip-path="url(#p01b923dee1)" style="fill: none; stroke: #b0b0b0; stroke-width: 0.8; stroke-linecap: square"/>
     </g>
     <g id="line2d_26">
      <g>
       <use xlink:href="#m7c730ab908" x="108" y="309.368746" style="stroke: #000000; stroke-width: 0.8"/>
      </g>
     </g>
     <g id="text_14">
      <!-- −0.50 -->
      <g transform="translate(73.582813 313.365621) scale(0.1 -0.1)">
       <use xlink:href="#MicrosoftYaHei-2212"/>
       <use xlink:href="#MicrosoftYaHei-30" x="74.169922"/>
       <use xlink:href="#MicrosoftYaHei-2e" x="132.8125"/>
       <use xlink:href="#MicrosoftYaHei-35" x="156.884766"/>
       <use xlink:href="#MicrosoftYaHei-30" x="215.527344"/>
      </g>
     </g>
    </g>
    <g id="ytick_5">
     <g id="line2d_27">
      <path d="M 108 251.792664 
L 777.6 251.792664 
" clip-path="url(#p01b923dee1)" style="fill: none; stroke: #b0b0b0; stroke-width: 0.8; stroke-linecap: square"/>
     </g>
     <g id="line2d_28">
      <g>
       <use xlink:href="#m7c730ab908" x="108" y="251.792664" style="stroke: #000000; stroke-width: 0.8"/>
      </g>
     </g>
     <g id="text_15">
      <!-- −0.25 -->
      <g transform="translate(73.582813 255.789539) scale(0.1 -0.1)">
       <use xlink:href="#MicrosoftYaHei-2212"/>
       <use xlink:href="#MicrosoftYaHei-30" x="74.169922"/>
       <use xlink:href="#MicrosoftYaHei-2e" x="132.8125"/>
       <use xlink:href="#MicrosoftYaHei-32" x="156.884766"/>
       <use xlink:href="#MicrosoftYaHei-35" x="215.527344"/>
      </g>
     </g>
    </g>
    <g id="ytick_6">
     <g id="line2d_29">
      <path d="M 108 194.216581 
L 777.6 194.216581 
" clip-path="url(#p01b923dee1)" style="fill: none; stroke: #b0b0b0; stroke-width: 0.8; stroke-linecap: square"/>
     </g>
     <g id="line2d_30">
      <g>
       <use xlink:href="#m7c730ab908" x="108" y="194.216581" style="stroke: #000000; stroke-width: 0.8"/>
      </g>
     </g>
     <g id="text_16">
      <!-- 0.00 -->
      <g transform="translate(81 198.213456) scale(0.1 -0.1)">
       <use xlink:href="#MicrosoftYaHei-30"/>
       <use xlink:href="#MicrosoftYaHei-2e" x="58.642578"/>
       <use xlink:href="#MicrosoftYaHei-30" x="82.714844"/>
       <use xlink:href="#MicrosoftYaHei-30" x="141.357422"/>
      </g>
     </g>
    </g>
    <g id="ytick_7">
     <g id="line2d_31">
      <path d="M 108 136.640499 
L 777.6 136.640499 
" clip-path="url(#p01b923dee1)" style="fill: none; stroke: #b0b0b0; stroke-width: 0.8; stroke-linecap: square"/>
     </g>
     <g id="line2d_32">
      <g>
       <use xlink:href="#m7c730ab908" x="108" y="136.640499" style="stroke: #000000; stroke-width: 0.8"/>
      </g>
     </g>
     <g id="text_17">
      <!-- 0.25 -->
      <g transform="translate(81 140.637374) scale(0.1 -0.1)">
       <use xlink:href="#MicrosoftYaHei-30"/>
       <use xlink:href="#MicrosoftYaHei-2e" x="58.642578"/>
       <use xlink:href="#MicrosoftYaHei-32" x="82.714844"/>
       <use xlink:href="#MicrosoftYaHei-35" x="141.357422"/>
      </g>
     </g>
    </g>
    <g id="ytick_8">
     <g id="line2d_33">
      <path d="M 108 79.064416 
L 777.6 79.064416 
" clip-path="url(#p01b923dee1)" style="fill: none; stroke: #b0b0b0; stroke-width: 0.8; stroke-linecap: square"/>
     </g>
     <g id="line2d_34">
      <g>
       <use xlink:href="#m7c730ab908" x="108" y="79.064416" style="stroke: #000000; stroke-width: 0.8"/>
      </g>
     </g>
     <g id="text_18">
      <!-- 0.50 -->
      <g transform="translate(81 83.061291) scale(0.1 -0.1)">
       <use xlink:href="#MicrosoftYaHei-30"/>
       <use xlink:href="#MicrosoftYaHei-2e" x="58.642578"/>
       <use xlink:href="#MicrosoftYaHei-35" x="82.714844"/>
       <use xlink:href="#MicrosoftYaHei-30" x="141.357422"/>
      </g>
     </g>
    </g>
    <g id="text_19">
     <!-- x值 -->
     <g transform="translate(67.096875 298.414375) rotate(-90) scale(0.1 -0.1)">
      <defs>
       <path id="MicrosoftYaHei-78" d="M 3163 3456 
L 2006 1716 
L 3147 0 
L 2434 0 
L 1775 1100 
Q 1722 1188 1625 1369 
L 1613 1369 
Q 1609 1350 1456 1100 
L 784 0 
L 81 0 
L 1256 1697 
L 134 3456 
L 847 3456 
L 1494 2300 
Q 1553 2194 1638 2025 
L 1650 2025 
L 2491 3456 
L 3163 3456 
z
" transform="scale(0.015625)"/>
       <path id="MicrosoftYaHei-503c" d="M 1619 -216 
L 2250 -216 
L 2250 3653 
L 3725 3653 
L 3725 4222 
L 1913 4222 
L 1913 4647 
L 3725 4647 
L 3725 5309 
L 4200 5309 
L 4200 4647 
L 6169 4647 
L 6169 4222 
L 4200 4222 
L 4200 3653 
L 5713 3653 
L 5713 -216 
L 6306 -216 
L 6306 -641 
L 1619 -641 
L 1619 -216 
z
M 69 2247 
Q 906 3497 1369 5278 
L 1831 5141 
Q 1581 4334 1288 3628 
L 1288 -816 
L 831 -816 
L 831 2666 
Q 563 2166 263 1734 
Q 175 1997 69 2247 
z
M 2713 -216 
L 5250 -216 
L 5250 353 
L 2713 353 
L 2713 -216 
z
M 5250 3241 
L 2713 3241 
L 2713 2678 
L 5250 2678 
L 5250 3241 
z
M 2713 1716 
L 5250 1716 
L 5250 2278 
L 2713 2278 
L 2713 1716 
z
M 2713 753 
L 5250 753 
L 5250 1316 
L 2713 1316 
L 2713 753 
z
" transform="scale(0.015625)"/>
      </defs>
      <use xlink:href="#MicrosoftYaHei-78"/>
      <use xlink:href="#MicrosoftYaHei-503c" x="50.683594"/>
     </g>
    </g>
   </g>
   <g id="line2d_35">
    <path d="M 138.436364 171.190754 
L 159.848881 171.359644 
L 178.202467 171.711877 
L 196.556053 172.277893 
L 214.909639 173.07965 
L 230.204294 173.944187 
L 245.498949 175.001559 
L 260.793604 176.265352 
L 276.088259 177.749242 
L 291.382915 179.466893 
L 306.67757 181.431825 
L 321.972225 183.657281 
L 337.26688 186.156061 
L 349.502604 188.360089 
L 361.738328 190.752719 
L 373.974052 193.339408 
L 386.209776 196.125126 
L 398.4455 199.114273 
L 410.681224 202.310591 
L 422.916948 205.717071 
L 435.152672 209.335857 
L 447.388397 213.168149 
L 459.624121 217.214094 
L 471.859845 221.472694 
L 484.095569 225.941694 
L 496.331293 230.617491 
L 508.567017 235.495035 
L 523.861672 241.865489 
L 539.156327 248.524349 
L 554.450982 255.451068 
L 569.745637 262.620831 
L 588.099223 271.504022 
L 606.45281 280.636441 
L 630.924258 293.083382 
L 692.102878 324.373598 
L 710.456464 333.442271 
L 725.751119 340.762532 
L 741.045774 347.80837 
L 747.163636 350.537668 
L 747.163636 350.537668 
" clip-path="url(#p01b923dee1)" style="fill: none; stroke: #1f77b4; stroke-width: 1.5; stroke-linecap: square"/>
   </g>
   <g id="line2d_36">
    <path d="M 138.436364 170.287961 
L 147.613157 167.424533 
L 156.78995 164.306276 
L 165.966743 160.939055 
L 175.143536 157.341568 
L 187.37926 152.25273 
L 217.96857 139.273398 
L 224.086432 136.947845 
L 230.204294 134.836302 
L 236.322156 132.999467 
L 242.440018 131.497314 
L 248.55788 130.38552 
L 251.616811 129.991304 
L 254.675742 129.711709 
L 257.734673 129.550867 
L 260.793604 129.512017 
L 263.852535 129.597455 
L 266.911466 129.808508 
L 269.970397 130.145519 
L 273.029328 130.607876 
L 276.088259 131.194043 
L 279.14719 131.901628 
L 285.265053 133.667688 
L 291.382915 135.873077 
L 297.500777 138.477206 
L 303.618639 141.435245 
L 309.736501 144.701171 
L 315.854363 148.230213 
L 321.972225 151.9806 
L 331.149018 157.939942 
L 340.325811 164.205502 
L 352.561535 172.891268 
L 367.85619 184.081645 
L 392.327638 202.345628 
L 438.211603 236.654818 
L 459.624121 252.404196 
L 481.036638 267.865489 
L 499.390224 280.830862 
L 514.684879 291.39754 
L 529.979534 301.720223 
L 545.274189 311.773419 
L 560.568844 321.53224 
L 572.804568 329.111046 
L 585.040292 336.473878 
L 597.276016 343.609002 
L 609.511741 350.505039 
L 621.747465 357.15098 
L 633.983189 363.536212 
L 646.218913 369.65053 
L 658.454637 375.484163 
L 670.690361 381.027783 
L 682.926085 386.272526 
L 695.161809 391.210003 
L 704.338602 394.706699 
L 713.515395 398.02296 
L 722.692188 401.155801 
L 731.868981 404.102403 
L 741.045774 406.860116 
L 747.163636 408.592419 
L 747.163636 408.592419 
" clip-path="url(#p01b923dee1)" style="fill: none; stroke: #ff7f0e; stroke-width: 1.5; stroke-linecap: square"/>
   </g>
   <g id="line2d_37">
    <path d="M 138.436364 170.96045 
L 162.907812 169.267097 
L 181.261398 168.181808 
L 199.614984 167.327267 
L 214.909639 166.847785 
L 227.145363 166.654015 
L 239.381087 166.661606 
L 251.616811 166.903875 
L 263.852535 167.417181 
L 273.029328 168.003602 
L 282.206122 168.782242 
L 291.382915 169.771624 
L 300.559708 170.991026 
L 309.736501 172.46036 
L 318.913294 174.20001 
L 328.090087 176.230623 
L 337.26688 178.572864 
L 346.443673 181.247107 
L 352.561535 183.224162 
L 358.679397 185.363169 
L 364.797259 187.669466 
L 370.915121 190.148063 
L 377.032983 192.803577 
L 383.150845 195.640158 
L 389.268707 198.661422 
L 395.386569 201.87038 
L 401.504431 205.269362 
L 407.622293 208.859952 
L 413.740155 212.642921 
L 419.858017 216.618165 
L 425.975879 220.784651 
L 432.093741 225.140372 
L 441.270534 232.021888 
L 450.447328 239.307607 
L 459.624121 246.97772 
L 468.800914 255.00728 
L 477.977707 263.366497 
L 487.1545 272.021213 
L 496.331293 280.933527 
L 508.567017 293.146332 
L 523.861672 308.797463 
L 554.450982 340.606442 
L 572.804568 359.495284 
L 585.040292 371.823163 
L 597.276016 383.853902 
L 609.511741 395.526143 
L 618.688534 404.013954 
L 627.865327 412.253176 
L 637.04212 420.228602 
L 646.218913 427.927549 
L 655.395706 435.339582 
L 664.572499 442.456232 
L 673.749292 449.27073 
L 682.926085 455.777756 
L 692.102878 461.973206 
L 701.279671 467.853991 
L 710.456464 473.417853 
L 719.633257 478.663211 
L 728.81005 483.58903 
L 737.986843 488.194711 
L 747.163636 492.48 
L 747.163636 492.48 
" clip-path="url(#p01b923dee1)" style="fill: none; stroke: #2ca02c; stroke-width: 1.5; stroke-linecap: square"/>
   </g>
   <g id="line2d_38">
    <path d="M 138.436364 172.111972 
L 144.554226 174.196828 
L 150.672088 176.585602 
L 156.78995 179.266726 
L 162.907812 182.225009 
L 169.025674 185.441643 
L 175.143536 188.89423 
L 181.261398 192.556869 
L 190.438191 198.379699 
L 199.614984 204.496173 
L 230.204294 225.284843 
L 236.322156 229.18429 
L 242.440018 232.888007 
L 248.55788 236.348176 
L 254.675742 239.517461 
L 260.793604 242.349534 
L 266.911466 244.799622 
L 273.029328 246.825061 
L 276.088259 247.665918 
L 279.14719 248.38585 
L 282.206122 248.980364 
L 285.265053 249.445202 
L 288.323984 249.776357 
L 291.382915 249.970089 
L 294.441846 250.022944 
L 297.500777 249.931766 
L 300.559708 249.693713 
L 303.618639 249.306274 
L 306.67757 248.767279 
L 309.736501 248.074916 
L 312.795432 247.227741 
L 315.854363 246.224692 
L 318.913294 245.0651 
L 321.972225 243.748697 
L 325.031156 242.27563 
L 328.090087 240.646465 
L 331.149018 238.862197 
L 334.207949 236.924259 
L 337.26688 234.834521 
L 340.325811 232.595302 
L 343.384742 230.209368 
L 349.502604 225.010685 
L 355.620466 219.269644 
L 361.738328 213.024625 
L 367.85619 206.321104 
L 373.974052 199.211462 
L 380.091914 191.754709 
L 389.268707 180.063128 
L 401.504431 163.915868 
L 413.740155 147.726628 
L 422.916948 135.978219 
L 429.03481 128.504094 
L 435.152672 121.424026 
L 441.270534 114.829624 
L 447.388397 108.810832 
L 450.447328 106.044672 
L 453.506259 103.454834 
L 456.56519 101.051603 
L 459.624121 98.844956 
L 462.683052 96.844524 
L 465.741983 95.059558 
L 468.800914 93.498898 
L 471.859845 92.170935 
L 474.918776 91.083582 
L 477.977707 90.244242 
L 481.036638 89.659774 
L 484.095569 89.336465 
L 487.1545 89.28 
L 490.213431 89.495434 
L 493.272362 89.987165 
L 496.331293 90.75891 
L 499.390224 91.813678 
L 502.449155 93.15375 
L 505.508086 94.78066 
L 508.567017 96.695173 
L 511.625948 98.897268 
L 514.684879 101.386127 
L 517.74381 104.160118 
L 520.802741 107.216787 
L 523.861672 110.552848 
L 526.920603 114.16418 
L 529.979534 118.045819 
L 533.038465 122.19196 
L 536.097396 126.595957 
L 539.156327 131.250331 
L 542.215258 136.146768 
L 545.274189 141.276137 
L 551.392051 152.193117 
L 557.509913 163.912328 
L 563.627775 176.332744 
L 569.745637 189.342026 
L 575.863499 202.81746 
L 585.040292 223.61369 
L 603.393878 265.515265 
L 609.511741 279.014563 
L 615.629603 292.019167 
L 621.747465 304.373108 
L 627.865327 315.92337 
L 630.924258 321.350584 
L 633.983189 326.52181 
L 637.04212 331.419604 
L 640.101051 336.027065 
L 643.159982 340.327892 
L 646.218913 344.30644 
L 649.277844 347.947776 
L 652.336775 351.237732 
L 655.395706 354.162957 
L 658.454637 356.71097 
L 661.513568 358.870204 
L 664.572499 360.630053 
L 667.63143 361.980919 
L 670.690361 362.914248 
L 673.749292 363.42257 
L 676.808223 363.499534 
L 679.867154 363.13994 
L 682.926085 362.339765 
L 685.985016 361.096194 
L 689.043947 359.407636 
L 692.102878 357.273743 
L 695.161809 354.695427 
L 698.22074 351.674869 
L 701.279671 348.215526 
L 704.338602 344.322132 
L 707.397533 340.000699 
L 710.456464 335.258509 
L 713.515395 330.10411 
L 716.574326 324.547295 
L 719.633257 318.599093 
L 722.692188 312.271739 
L 725.751119 305.578657 
L 728.81005 298.534425 
L 731.868981 291.154743 
L 737.986843 275.457227 
L 744.104705 258.632684 
L 747.163636 249.847795 
L 747.163636 249.847795 
" clip-path="url(#p01b923dee1)" style="fill: none; stroke: #d62728; stroke-width: 1.5; stroke-linecap: square"/>
   </g>
   <g id="patch_3">
    <path d="M 108 512.64 
L 108 69.12 
" style="fill: none; stroke: #000000; stroke-width: 0.8; stroke-linejoin: miter; stroke-linecap: square"/>
   </g>
   <g id="patch_4">
    <path d="M 777.6 512.64 
L 777.6 69.12 
" style="fill: none; stroke: #000000; stroke-width: 0.8; stroke-linejoin: miter; stroke-linecap: square"/>
   </g>
   <g id="patch_5">
    <path d="M 108 512.64 
L 777.6 512.64 
" style="fill: none; stroke: #000000; stroke-width: 0.8; stroke-linejoin: miter; stroke-linecap: square"/>
   </g>
   <g id="patch_6">
    <path d="M 108 69.12 
L 777.6 69.12 
" style="fill: none; stroke: #000000; stroke-width: 0.8; stroke-linejoin: miter; stroke-linecap: square"/>
   </g>
   <g id="text_20">
    <!-- Hopf振荡器的x值随时间变化 -->
    <g transform="translate(365.510625 63.12) scale(0.12 -0.12)">
     <defs>
      <path id="MicrosoftYaHei-48" d="M 4325 0 
L 3700 0 
L 3700 2181 
L 1250 2181 
L 1250 0 
L 625 0 
L 625 4841 
L 1250 4841 
L 1250 2738 
L 3700 2738 
L 3700 4841 
L 4325 4841 
L 4325 0 
z
" transform="scale(0.015625)"/>
      <path id="MicrosoftYaHei-6f" d="M 316 1691 
Q 316 2547 794 3042 
Q 1272 3538 2091 3538 
Q 2869 3538 3311 3061 
Q 3753 2584 3753 1744 
Q 3753 925 3281 422 
Q 2809 -81 2016 -81 
Q 1241 -81 778 406 
Q 316 894 316 1691 
z
M 941 1709 
Q 941 1113 1242 769 
Q 1544 425 2053 425 
Q 2578 425 2853 761 
Q 3128 1097 3128 1725 
Q 3128 2356 2853 2693 
Q 2578 3031 2053 3031 
Q 1538 3031 1239 2678 
Q 941 2325 941 1709 
z
" transform="scale(0.015625)"/>
      <path id="MicrosoftYaHei-70" d="M 1159 488 
L 1159 -1591 
L 547 -1591 
L 547 3456 
L 1159 3456 
L 1159 2859 
L 1172 2859 
Q 1578 3538 2359 3538 
Q 3022 3538 3398 3073 
Q 3775 2609 3775 1828 
Q 3775 966 3348 442 
Q 2922 -81 2200 -81 
Q 1534 -81 1172 488 
L 1159 488 
z
M 1156 1425 
Q 1156 1003 1428 714 
Q 1700 425 2109 425 
Q 2597 425 2872 800 
Q 3147 1175 3147 1838 
Q 3147 2397 2890 2714 
Q 2634 3031 2191 3031 
Q 1738 3031 1447 2709 
Q 1156 2388 1156 1884 
L 1156 1425 
z
" transform="scale(0.015625)"/>
      <path id="MicrosoftYaHei-66" d="M 2319 4594 
Q 2147 4684 1947 4684 
Q 1372 4684 1372 3972 
L 1372 3456 
L 2181 3456 
L 2181 2950 
L 1372 2950 
L 1372 0 
L 766 0 
L 766 2950 
L 175 2950 
L 175 3456 
L 766 3456 
L 766 4000 
Q 766 4556 1086 4873 
Q 1406 5191 1900 5191 
Q 2163 5191 2319 5131 
L 2319 4594 
z
" transform="scale(0.015625)"/>
      <path id="MicrosoftYaHei-632f" d="M 5813 1934 
L 6138 1572 
Q 5619 1197 5038 816 
Q 5531 59 6331 -284 
Q 6213 -428 5981 -728 
Q 4481 103 4044 2128 
L 3606 2128 
L 3606 -97 
Q 4000 84 4519 353 
Q 4538 141 4594 -103 
Q 4094 -347 3744 -528 
Q 3463 -678 3263 -834 
L 2950 -422 
Q 3169 -197 3156 128 
L 3156 2128 
L 2725 2128 
Q 2669 259 1913 -822 
Q 1738 -616 1544 -459 
Q 2256 547 2256 2497 
L 2256 4909 
L 6113 4909 
L 6113 4484 
L 2731 4484 
L 2731 2553 
L 6175 2553 
L 6175 2128 
L 4488 2128 
Q 4619 1603 4831 1178 
Q 5350 1559 5813 1934 
z
M 88 1972 
Q 469 2084 875 2216 
L 875 3672 
L 144 3672 
L 144 4097 
L 875 4097 
L 875 5259 
L 1350 5259 
L 1350 4097 
L 2013 4097 
L 2013 3672 
L 1350 3672 
L 1350 2378 
Q 1663 2497 2000 2622 
Q 2000 2322 2013 2134 
Q 1688 2016 1350 1897 
L 1350 -109 
Q 1350 -766 794 -784 
Q 513 -797 156 -791 
Q 119 -528 75 -272 
Q 419 -309 638 -309 
Q 875 -309 875 -72 
L 875 1722 
Q 519 1591 156 1453 
L 88 1972 
z
M 3088 3716 
L 5881 3716 
L 5881 3291 
L 3088 3291 
L 3088 3716 
z
" transform="scale(0.015625)"/>
      <path id="MicrosoftYaHei-8361" d="M 4575 3059 
L 2100 3059 
L 2100 3497 
L 5500 3497 
L 5500 3009 
L 3056 1972 
L 6094 1972 
Q 6031 834 5956 147 
Q 5863 -741 5113 -741 
Q 4769 -741 4288 -722 
Q 4256 -503 4181 -234 
Q 4688 -278 5025 -278 
Q 5431 -278 5494 166 
Q 5569 753 5619 1534 
L 4881 1534 
Q 4456 -116 3175 -859 
Q 2981 -609 2813 -472 
Q 4006 159 4406 1534 
L 3575 1534 
Q 3063 247 1888 -322 
Q 1713 -47 1563 109 
Q 2688 634 3081 1534 
L 2088 1534 
L 2088 2003 
L 4575 3059 
z
M 4050 5253 
L 4550 5253 
L 4550 4647 
L 6256 4647 
L 6256 4209 
L 4550 4209 
L 4550 3691 
L 4050 3691 
L 4050 4209 
L 2363 4209 
L 2363 3691 
L 1863 3691 
L 1863 4209 
L 138 4209 
L 138 4647 
L 1863 4647 
L 1863 5253 
L 2363 5253 
L 2363 4647 
L 4050 4647 
L 4050 5253 
z
M 1338 1478 
Q 1500 1341 1750 1178 
Q 988 -247 675 -772 
L 238 -466 
Q 844 428 1338 1478 
z
M 969 3753 
Q 1644 3266 1969 2984 
L 1644 2584 
Q 1119 3078 681 3397 
L 969 3753 
z
M 419 2747 
Q 1013 2309 1388 1978 
L 1088 1584 
Q 463 2147 131 2372 
L 419 2747 
z
" transform="scale(0.015625)"/>
      <path id="MicrosoftYaHei-5668" d="M 300 2691 
L 2825 2691 
Q 2922 2925 2950 3234 
L 3400 3172 
Q 3363 2909 3291 2691 
L 4653 2691 
Q 4403 2872 4125 3047 
L 4381 3328 
Q 4794 3084 5125 2841 
L 4984 2691 
L 6150 2691 
L 6150 2278 
L 3738 2278 
Q 4459 1572 6300 1609 
Q 6150 1353 6044 1128 
Q 5878 1141 5725 1156 
L 5725 -753 
L 5288 -753 
L 5288 -409 
L 3950 -409 
L 3950 -747 
L 3513 -747 
L 3513 1184 
L 5503 1184 
Q 3716 1425 3219 2278 
L 3106 2278 
Q 2756 1534 838 1184 
L 2838 1184 
L 2838 -747 
L 2400 -747 
L 2400 -409 
L 1081 -409 
L 1081 -753 
L 644 -753 
L 644 1147 
Q 478 1116 300 1084 
Q 206 1272 56 1528 
Q 2144 1797 2563 2278 
L 300 2278 
L 300 2691 
z
M 3506 4966 
L 5719 4966 
L 5719 3122 
L 5281 3122 
L 5281 3341 
L 3944 3341 
L 3944 3147 
L 3506 3147 
L 3506 4966 
z
M 638 4966 
L 2831 4966 
L 2831 3147 
L 2394 3147 
L 2394 3341 
L 1075 3341 
L 1075 3084 
L 638 3084 
L 638 4966 
z
M 5281 4578 
L 3944 4578 
L 3944 3728 
L 5281 3728 
L 5281 4578 
z
M 2394 4578 
L 1075 4578 
L 1075 3728 
L 2394 3728 
L 2394 4578 
z
M 5288 797 
L 3950 797 
L 3950 -22 
L 5288 -22 
L 5288 797 
z
M 2400 797 
L 1081 797 
L 1081 -22 
L 2400 -22 
L 2400 797 
z
" transform="scale(0.015625)"/>
      <path id="MicrosoftYaHei-7684" d="M 356 4284 
L 988 4284 
Q 1219 4853 1369 5322 
L 1894 5172 
Q 1697 4694 1513 4284 
L 2763 4284 
L 2763 -691 
L 2263 -691 
L 2263 -203 
L 856 -203 
L 856 -734 
L 356 -734 
L 356 4284 
z
M 2856 3003 
Q 3444 3934 3850 5322 
L 4375 5191 
Q 4216 4719 4050 4303 
L 6063 4303 
Q 5988 1091 5938 259 
Q 5894 -722 4906 -722 
Q 4338 -722 3750 -684 
Q 3713 -372 3650 -128 
L 3669 -128 
Q 4294 -216 4813 -216 
Q 5381 -216 5425 384 
Q 5494 1316 5525 3834 
L 3850 3834 
Q 3578 3231 3288 2772 
Q 3119 2891 2856 3003 
z
M 856 266 
L 2263 266 
L 2263 1847 
L 856 1847 
L 856 266 
z
M 2263 3816 
L 856 3816 
L 856 2297 
L 2263 2297 
L 2263 3816 
z
M 3406 2578 
L 3788 2859 
Q 4481 2041 4894 1441 
L 4431 1116 
Q 3988 1841 3406 2578 
z
" transform="scale(0.015625)"/>
      <path id="MicrosoftYaHei-968f" d="M 3256 4641 
L 4128 4641 
Q 4247 4963 4331 5291 
L 4756 5172 
Q 4663 4897 4563 4641 
L 6181 4641 
L 6181 4228 
L 4397 4228 
Q 4266 3916 4122 3628 
L 5794 3628 
L 5794 791 
Q 5794 134 5156 134 
L 4569 134 
Q 4563 178 4481 597 
Q 4838 578 5056 578 
Q 5369 578 5369 891 
L 5369 1328 
L 4113 1328 
L 4113 122 
L 3688 122 
L 3688 2841 
Q 3459 2475 3213 2153 
Q 3119 2397 3019 2597 
Q 3600 3394 3963 4228 
L 3256 4228 
L 3256 4641 
z
M 2081 1809 
Q 2225 666 1531 509 
Q 1325 466 969 503 
Q 925 697 844 991 
Q 1163 916 1375 947 
Q 1756 1009 1625 1809 
Q 1531 2241 1075 2772 
Q 1325 3578 1563 4459 
L 831 4459 
L 831 -809 
L 388 -809 
L 388 4909 
L 2025 4909 
L 2025 4459 
Q 1788 3647 1550 2853 
Q 1975 2359 2081 1809 
z
M 3969 -172 
Q 4688 -203 6244 -153 
Q 6144 -409 6063 -647 
Q 4763 -672 3956 -622 
Q 3069 -584 2600 78 
Q 2275 -366 1988 -834 
L 1681 -447 
Q 1891 -131 2444 572 
L 2444 2709 
L 1938 2709 
L 1938 3134 
L 2881 3134 
L 2881 403 
Q 3263 -156 3969 -172 
z
M 4113 1716 
L 5369 1716 
L 5369 2278 
L 4113 2278 
L 4113 1716 
z
M 5369 3228 
L 4113 3228 
L 4113 2666 
L 5369 2666 
L 5369 3228 
z
M 2575 5253 
Q 2881 4491 3044 3959 
Q 2794 3878 2606 3797 
Q 2450 4378 2181 5116 
L 2575 5253 
z
" transform="scale(0.015625)"/>
      <path id="MicrosoftYaHei-53d8" d="M 838 1634 
L 838 2066 
L 5088 2066 
L 5088 1634 
Q 4494 853 3659 309 
Q 4675 -178 6313 -297 
Q 6088 -609 5950 -822 
Q 4275 -594 3178 34 
Q 2122 -509 425 -866 
Q 269 -622 106 -403 
Q 1741 -122 2728 328 
Q 2047 838 1553 1634 
L 838 1634 
z
M 231 4534 
L 3081 4534 
Q 2888 4884 2725 5141 
L 3175 5359 
Q 3481 4884 3600 4659 
L 3359 4534 
L 6200 4534 
L 6200 4091 
L 4181 4091 
L 4181 2353 
L 3700 2353 
L 3700 4091 
L 2694 4091 
L 2694 2341 
L 2213 2341 
L 2213 4091 
L 231 4091 
L 231 4534 
z
M 4475 1634 
L 2116 1634 
Q 2575 953 3197 572 
Q 3947 1016 4475 1634 
z
M 4556 3434 
L 4900 3728 
Q 5700 3009 6213 2459 
L 5825 2116 
Q 5219 2797 4556 3434 
z
M 1381 3741 
L 1756 3422 
Q 1119 2691 500 2097 
Q 344 2272 138 2447 
Q 794 3009 1381 3741 
z
" transform="scale(0.015625)"/>
      <path id="MicrosoftYaHei-5316" d="M 1844 1453 
Q 2663 1834 3375 2331 
L 3375 5197 
L 3913 5197 
L 3913 2734 
Q 4869 3506 5613 4516 
L 6069 4184 
Q 5159 2975 3913 2069 
L 3913 303 
Q 3913 -122 4363 -122 
L 5156 -122 
Q 5581 -122 5650 284 
Q 5738 709 5763 1266 
Q 6025 1166 6313 1084 
Q 6263 559 6181 122 
Q 6063 -597 5281 -597 
L 4225 -597 
Q 3375 -597 3375 241 
L 3375 1703 
Q 2791 1328 2144 1016 
Q 2013 1222 1844 1453 
z
M 88 2222 
Q 1175 3666 1688 5291 
L 2231 5134 
Q 1934 4359 1588 3675 
L 1588 -797 
L 1063 -797 
L 1063 2734 
Q 716 2172 325 1678 
Q 219 1947 88 2222 
z
" transform="scale(0.015625)"/>
     </defs>
     <use xlink:href="#MicrosoftYaHei-48"/>
     <use xlink:href="#MicrosoftYaHei-6f" x="77.34375"/>
     <use xlink:href="#MicrosoftYaHei-70" x="140.917969"/>
     <use xlink:href="#MicrosoftYaHei-66" x="202.785156"/>
     <use xlink:href="#MicrosoftYaHei-632f" x="237.453125"/>
     <use xlink:href="#MicrosoftYaHei-8361" x="337.453125"/>
     <use xlink:href="#MicrosoftYaHei-5668" x="437.453125"/>
     <use xlink:href="#MicrosoftYaHei-7684" x="537.453125"/>
     <use xlink:href="#MicrosoftYaHei-78" x="637.453125"/>
     <use xlink:href="#MicrosoftYaHei-503c" x="688.136719"/>
     <use xlink:href="#MicrosoftYaHei-968f" x="788.136719"/>
     <use xlink:href="#MicrosoftYaHei-65f6" x="888.136719"/>
     <use xlink:href="#MicrosoftYaHei-95f4" x="988.136719"/>
     <use xlink:href="#MicrosoftYaHei-53d8" x="1088.136719"/>
     <use xlink:href="#MicrosoftYaHei-5316" x="1188.136719"/>
    </g>
   </g>
   <g id="legend_1">
    <g id="patch_7">
     <path d="M 666.326563 139.03875 
L 770.6 139.03875 
Q 772.6 139.03875 772.6 137.03875 
L 772.6 76.12 
Q 772.6 74.12 770.6 74.12 
L 666.326563 74.12 
Q 664.326563 74.12 664.326563 76.12 
L 664.326563 137.03875 
Q 664.326563 139.03875 666.326563 139.03875 
z
" style="fill: #ffffff; opacity: 0.8; stroke: #cccccc; stroke-linejoin: miter"/>
    </g>
    <g id="line2d_39">
     <path d="M 668.326563 82.61375 
L 678.326563 82.61375 
L 688.326563 82.61375 
" style="fill: none; stroke: #1f77b4; stroke-width: 1.5; stroke-linecap: square"/>
    </g>
    <g id="text_21">
     <!-- α=1, μ=1, ω=1 -->
     <g transform="translate(696.326563 86.11375) scale(0.1 -0.1)">
      <defs>
       <path id="MicrosoftYaHei-3b1" d="M 3425 1756 
Q 3550 1034 3676 781 
Q 3803 528 4000 528 
Q 4094 528 4150 550 
L 4150 19 
Q 3947 -31 3806 -31 
Q 3269 -31 3078 934 
L 3066 934 
Q 2575 -81 1684 -81 
Q 1053 -81 675 401 
Q 297 884 297 1628 
Q 297 2469 733 3003 
Q 1169 3538 1909 3538 
Q 2341 3538 2669 3289 
Q 2997 3041 3159 2600 
L 3175 2600 
L 3453 3456 
L 4088 3456 
L 3425 1756 
z
M 2919 1759 
Q 2647 3038 1931 3038 
Q 1466 3038 1194 2638 
Q 922 2238 922 1663 
Q 922 1150 1151 797 
Q 1381 444 1778 444 
Q 2491 444 2869 1609 
L 2919 1759 
z
" transform="scale(0.015625)"/>
       <path id="MicrosoftYaHei-3d" d="M 3972 2497 
L 788 2497 
L 788 2969 
L 3972 2969 
L 3972 2497 
z
M 3972 1053 
L 788 1053 
L 788 1525 
L 3972 1525 
L 3972 1053 
z
" transform="scale(0.015625)"/>
       <path id="MicrosoftYaHei-2c" d="M 1109 778 
L 575 -888 
L 131 -888 
L 519 778 
L 1109 778 
z
" transform="scale(0.015625)"/>
       <path id="MicrosoftYaHei-20" transform="scale(0.015625)"/>
       <path id="MicrosoftYaHei-3bc" d="M 2947 0 
Q 2869 238 2869 559 
L 2853 559 
Q 2578 -78 1934 -78 
Q 1400 -78 1169 316 
L 1156 316 
L 1156 -1338 
L 547 -1338 
L 547 3456 
L 1156 3456 
L 1156 1359 
Q 1156 941 1379 695 
Q 1603 450 1966 450 
Q 2363 450 2606 734 
Q 2850 1019 2850 1494 
L 2850 3456 
L 3469 3456 
L 3469 913 
Q 3469 259 3581 0 
L 2947 0 
z
" transform="scale(0.015625)"/>
       <path id="MicrosoftYaHei-3c9" d="M 2806 559 
L 2794 559 
Q 2447 -78 1763 -78 
Q 1119 -78 756 364 
Q 394 806 394 1547 
Q 394 2425 819 3456 
L 1488 3456 
Q 1003 2391 1003 1531 
Q 1003 1031 1197 740 
Q 1391 450 1753 450 
Q 2503 450 2503 1575 
L 2503 2531 
L 3106 2531 
L 3106 1575 
Q 3106 450 3850 450 
Q 4203 450 4401 726 
Q 4600 1003 4600 1531 
Q 4600 2391 4116 3456 
L 4784 3456 
Q 5213 2413 5213 1547 
Q 5213 813 4852 367 
Q 4491 -78 3834 -78 
Q 3144 -78 2806 559 
z
" transform="scale(0.015625)"/>
      </defs>
      <use xlink:href="#MicrosoftYaHei-3b1"/>
      <use xlink:href="#MicrosoftYaHei-3d" x="66.601562"/>
      <use xlink:href="#MicrosoftYaHei-31" x="140.771484"/>
      <use xlink:href="#MicrosoftYaHei-2c" x="199.414062"/>
      <use xlink:href="#MicrosoftYaHei-20" x="223.486328"/>
      <use xlink:href="#MicrosoftYaHei-3bc" x="253.076172"/>
      <use xlink:href="#MicrosoftYaHei-3d" x="315.869141"/>
      <use xlink:href="#MicrosoftYaHei-31" x="390.039062"/>
      <use xlink:href="#MicrosoftYaHei-2c" x="448.681641"/>
      <use xlink:href="#MicrosoftYaHei-20" x="472.753906"/>
      <use xlink:href="#MicrosoftYaHei-3c9" x="502.34375"/>
      <use xlink:href="#MicrosoftYaHei-3d" x="589.892578"/>
      <use xlink:href="#MicrosoftYaHei-31" x="664.0625"/>
     </g>
    </g>
    <g id="line2d_40">
     <path d="M 668.326563 98.093438 
L 678.326563 98.093438 
L 688.326563 98.093438 
" style="fill: none; stroke: #ff7f0e; stroke-width: 1.5; stroke-linecap: square"/>
    </g>
    <g id="text_22">
     <!-- α=5, μ=1, ω=1 -->
     <g transform="translate(696.326563 101.593438) scale(0.1 -0.1)">
      <use xlink:href="#MicrosoftYaHei-3b1"/>
      <use xlink:href="#MicrosoftYaHei-3d" x="66.601562"/>
      <use xlink:href="#MicrosoftYaHei-35" x="140.771484"/>
      <use xlink:href="#MicrosoftYaHei-2c" x="199.414062"/>
      <use xlink:href="#MicrosoftYaHei-20" x="223.486328"/>
      <use xlink:href="#MicrosoftYaHei-3bc" x="253.076172"/>
      <use xlink:href="#MicrosoftYaHei-3d" x="315.869141"/>
      <use xlink:href="#MicrosoftYaHei-31" x="390.039062"/>
      <use xlink:href="#MicrosoftYaHei-2c" x="448.681641"/>
      <use xlink:href="#MicrosoftYaHei-20" x="472.753906"/>
      <use xlink:href="#MicrosoftYaHei-3c9" x="502.34375"/>
      <use xlink:href="#MicrosoftYaHei-3d" x="589.892578"/>
      <use xlink:href="#MicrosoftYaHei-31" x="664.0625"/>
     </g>
    </g>
    <g id="line2d_41">
     <path d="M 668.326563 113.573125 
L 678.326563 113.573125 
L 688.326563 113.573125 
" style="fill: none; stroke: #2ca02c; stroke-width: 1.5; stroke-linecap: square"/>
    </g>
    <g id="text_23">
     <!-- α=1, μ=2, ω=1 -->
     <g transform="translate(696.326563 117.073125) scale(0.1 -0.1)">
      <use xlink:href="#MicrosoftYaHei-3b1"/>
      <use xlink:href="#MicrosoftYaHei-3d" x="66.601562"/>
      <use xlink:href="#MicrosoftYaHei-31" x="140.771484"/>
      <use xlink:href="#MicrosoftYaHei-2c" x="199.414062"/>
      <use xlink:href="#MicrosoftYaHei-20" x="223.486328"/>
      <use xlink:href="#MicrosoftYaHei-3bc" x="253.076172"/>
      <use xlink:href="#MicrosoftYaHei-3d" x="315.869141"/>
      <use xlink:href="#MicrosoftYaHei-32" x="390.039062"/>
      <use xlink:href="#MicrosoftYaHei-2c" x="448.681641"/>
      <use xlink:href="#MicrosoftYaHei-20" x="472.753906"/>
      <use xlink:href="#MicrosoftYaHei-3c9" x="502.34375"/>
      <use xlink:href="#MicrosoftYaHei-3d" x="589.892578"/>
      <use xlink:href="#MicrosoftYaHei-31" x="664.0625"/>
     </g>
    </g>
    <g id="line2d_42">
     <path d="M 668.326563 129.052813 
L 678.326563 129.052813 
L 688.326563 129.052813 
" style="fill: none; stroke: #d62728; stroke-width: 1.5; stroke-linecap: square"/>
    </g>
    <g id="text_24">
     <!-- α=1, μ=1, ω=5 -->
     <g transform="translate(696.326563 132.552813) scale(0.1 -0.1)">
      <use xlink:href="#MicrosoftYaHei-3b1"/>
      <use xlink:href="#MicrosoftYaHei-3d" x="66.601562"/>
      <use xlink:href="#MicrosoftYaHei-31" x="140.771484"/>
      <use xlink:href="#MicrosoftYaHei-2c" x="199.414062"/>
      <use xlink:href="#MicrosoftYaHei-20" x="223.486328"/>
      <use xlink:href="#MicrosoftYaHei-3bc" x="253.076172"/>
      <use xlink:href="#MicrosoftYaHei-3d" x="315.869141"/>
      <use xlink:href="#MicrosoftYaHei-31" x="390.039062"/>
      <use xlink:href="#MicrosoftYaHei-2c" x="448.681641"/>
      <use xlink:href="#MicrosoftYaHei-20" x="472.753906"/>
      <use xlink:href="#MicrosoftYaHei-3c9" x="502.34375"/>
      <use xlink:href="#MicrosoftYaHei-3d" x="589.892578"/>
      <use xlink:href="#MicrosoftYaHei-35" x="664.0625"/>
     </g>
    </g>
   </g>
  </g>
 </g>
 <defs>
  <clipPath id="p01b923dee1">
   <rect x="108" y="69.12" width="669.6" height="443.52"/>
  </clipPath>
 </defs>
</svg>
