<?xml version="1.0" encoding="utf-8" standalone="no"?>
<!DOCTYPE svg PUBLIC "-//W3C//DTD SVG 1.1//EN"
  "http://www.w3.org/Graphics/SVG/1.1/DTD/svg11.dtd">
<svg xmlns:xlink="http://www.w3.org/1999/xlink" width="732.896875pt" height="505.9275pt" viewBox="0 0 732.896875 505.9275" xmlns="http://www.w3.org/2000/svg" version="1.1">
 <metadata>
  <rdf:RDF xmlns:dc="http://purl.org/dc/elements/1.1/" xmlns:cc="http://creativecommons.org/ns#" xmlns:rdf="http://www.w3.org/1999/02/22-rdf-syntax-ns#">
   <cc:Work>
    <dc:type rdf:resource="http://purl.org/dc/dcmitype/StillImage"/>
    <dc:date>2024-09-02T17:18:16.043154</dc:date>
    <dc:format>image/svg+xml</dc:format>
    <dc:creator>
     <cc:Agent>
      <dc:title>Matplotlib v3.8.0, https://matplotlib.org/</dc:title>
     </cc:Agent>
    </dc:creator>
   </cc:Work>
  </rdf:RDF>
 </metadata>
 <defs>
  <style type="text/css">*{stroke-linejoin: round; stroke-linecap: butt}</style>
 </defs>
 <g id="figure_1">
  <g id="patch_1">
   <path d="M 0 505.9275 
L 732.896875 505.9275 
L 732.896875 0 
L 0 0 
z
" style="fill: #ffffff"/>
  </g>
  <g id="axes_1">
   <g id="patch_2">
    <path d="M 56.096875 466.768125 
L 725.696875 466.768125 
L 725.696875 23.248125 
L 56.096875 23.248125 
z
" style="fill: #ffffff"/>
   </g>
   <g id="matplotlib.axis_1">
    <g id="xtick_1">
     <g id="line2d_1">
      <path d="M 86.533239 466.768125 
L 86.533239 23.248125 
" clip-path="url(#p25f62fca7c)" style="fill: none; stroke: #b0b0b0; stroke-width: 0.8; stroke-linecap: square"/>
     </g>
     <g id="line2d_2">
      <defs>
       <path id="m773b5b3cd8" d="M 0 0 
L 0 3.5 
" style="stroke: #000000; stroke-width: 0.8"/>
      </defs>
      <g>
       <use xlink:href="#m773b5b3cd8" x="86.533239" y="466.768125" style="stroke: #000000; stroke-width: 0.8"/>
      </g>
     </g>
     <g id="text_1">
      <!-- 0 -->
      <g transform="translate(83.601207 481.761875) scale(0.1 -0.1)">
       <defs>
        <path id="MicrosoftYaHei-30" d="M 284 2325 
Q 284 3606 709 4264 
Q 1134 4922 1941 4922 
Q 3478 4922 3478 2441 
Q 3478 1216 3045 567 
Q 2613 -81 1831 -81 
Q 1094 -81 689 534 
Q 284 1150 284 2325 
z
M 909 2353 
Q 909 425 1888 425 
Q 2850 425 2850 2384 
Q 2850 4413 1906 4413 
Q 909 4413 909 2353 
z
" transform="scale(0.015625)"/>
       </defs>
       <use xlink:href="#MicrosoftYaHei-30"/>
      </g>
     </g>
    </g>
    <g id="xtick_2">
     <g id="line2d_3">
      <path d="M 163.006514 466.768125 
L 163.006514 23.248125 
" clip-path="url(#p25f62fca7c)" style="fill: none; stroke: #b0b0b0; stroke-width: 0.8; stroke-linecap: square"/>
     </g>
     <g id="line2d_4">
      <g>
       <use xlink:href="#m773b5b3cd8" x="163.006514" y="466.768125" style="stroke: #000000; stroke-width: 0.8"/>
      </g>
     </g>
     <g id="text_2">
      <!-- 25 -->
      <g transform="translate(157.142452 481.761875) scale(0.1 -0.1)">
       <defs>
        <path id="MicrosoftYaHei-32" d="M 2666 3572 
Q 2666 3963 2419 4186 
Q 2172 4409 1747 4409 
Q 1447 4409 1140 4256 
Q 834 4103 569 3819 
L 569 4413 
Q 806 4659 1107 4790 
Q 1409 4922 1816 4922 
Q 2472 4922 2872 4570 
Q 3272 4219 3272 3619 
Q 3272 3084 3026 2693 
Q 2781 2303 2188 1894 
Q 1581 1475 1376 1294 
Q 1172 1113 1090 947 
Q 1009 781 1009 544 
L 3416 544 
L 3416 0 
L 372 0 
L 372 241 
Q 372 659 486 951 
Q 600 1244 862 1520 
Q 1125 1797 1681 2184 
Q 2250 2584 2458 2886 
Q 2666 3188 2666 3572 
z
" transform="scale(0.015625)"/>
        <path id="MicrosoftYaHei-35" d="M 3294 1494 
Q 3294 784 2823 350 
Q 2353 -84 1559 -84 
Q 878 -84 544 119 
L 544 744 
Q 1034 425 1544 425 
Q 2050 425 2361 704 
Q 2672 984 2672 1447 
Q 2672 1909 2348 2167 
Q 2025 2425 1434 2425 
Q 978 2425 613 2384 
L 791 4841 
L 3053 4841 
L 3053 4303 
L 1306 4303 
L 1206 2931 
L 1647 2950 
Q 2416 2950 2855 2567 
Q 3294 2184 3294 1494 
z
" transform="scale(0.015625)"/>
       </defs>
       <use xlink:href="#MicrosoftYaHei-32"/>
       <use xlink:href="#MicrosoftYaHei-35" x="58.642578"/>
      </g>
     </g>
    </g>
    <g id="xtick_3">
     <g id="line2d_5">
      <path d="M 239.47979 466.768125 
L 239.47979 23.248125 
" clip-path="url(#p25f62fca7c)" style="fill: none; stroke: #b0b0b0; stroke-width: 0.8; stroke-linecap: square"/>
     </g>
     <g id="line2d_6">
      <g>
       <use xlink:href="#m773b5b3cd8" x="239.47979" y="466.768125" style="stroke: #000000; stroke-width: 0.8"/>
      </g>
     </g>
     <g id="text_3">
      <!-- 50 -->
      <g transform="translate(233.615727 481.761875) scale(0.1 -0.1)">
       <use xlink:href="#MicrosoftYaHei-35"/>
       <use xlink:href="#MicrosoftYaHei-30" x="58.642578"/>
      </g>
     </g>
    </g>
    <g id="xtick_4">
     <g id="line2d_7">
      <path d="M 315.953065 466.768125 
L 315.953065 23.248125 
" clip-path="url(#p25f62fca7c)" style="fill: none; stroke: #b0b0b0; stroke-width: 0.8; stroke-linecap: square"/>
     </g>
     <g id="line2d_8">
      <g>
       <use xlink:href="#m773b5b3cd8" x="315.953065" y="466.768125" style="stroke: #000000; stroke-width: 0.8"/>
      </g>
     </g>
     <g id="text_4">
      <!-- 75 -->
      <g transform="translate(310.089003 481.761875) scale(0.1 -0.1)">
       <defs>
        <path id="MicrosoftYaHei-37" d="M 3422 4463 
Q 2659 3131 2223 1998 
Q 1788 866 1684 0 
L 1047 0 
Q 1163 853 1594 1947 
Q 2025 3041 2747 4300 
L 347 4300 
L 347 4841 
L 3422 4841 
L 3422 4463 
z
" transform="scale(0.015625)"/>
       </defs>
       <use xlink:href="#MicrosoftYaHei-37"/>
       <use xlink:href="#MicrosoftYaHei-35" x="58.642578"/>
      </g>
     </g>
    </g>
    <g id="xtick_5">
     <g id="line2d_9">
      <path d="M 392.426341 466.768125 
L 392.426341 23.248125 
" clip-path="url(#p25f62fca7c)" style="fill: none; stroke: #b0b0b0; stroke-width: 0.8; stroke-linecap: square"/>
     </g>
     <g id="line2d_10">
      <g>
       <use xlink:href="#m773b5b3cd8" x="392.426341" y="466.768125" style="stroke: #000000; stroke-width: 0.8"/>
      </g>
     </g>
     <g id="text_5">
      <!-- 100 -->
      <g transform="translate(383.630247 481.761875) scale(0.1 -0.1)">
       <defs>
        <path id="MicrosoftYaHei-31" d="M 1781 0 
L 1781 4141 
Q 1638 3997 1295 3819 
Q 953 3641 663 3569 
L 663 4169 
Q 1047 4275 1484 4508 
Q 1922 4741 2156 4947 
L 2388 4947 
L 2388 0 
L 1781 0 
z
" transform="scale(0.015625)"/>
       </defs>
       <use xlink:href="#MicrosoftYaHei-31"/>
       <use xlink:href="#MicrosoftYaHei-30" x="58.642578"/>
       <use xlink:href="#MicrosoftYaHei-30" x="117.285156"/>
      </g>
     </g>
    </g>
    <g id="xtick_6">
     <g id="line2d_11">
      <path d="M 468.899616 466.768125 
L 468.899616 23.248125 
" clip-path="url(#p25f62fca7c)" style="fill: none; stroke: #b0b0b0; stroke-width: 0.8; stroke-linecap: square"/>
     </g>
     <g id="line2d_12">
      <g>
       <use xlink:href="#m773b5b3cd8" x="468.899616" y="466.768125" style="stroke: #000000; stroke-width: 0.8"/>
      </g>
     </g>
     <g id="text_6">
      <!-- 125 -->
      <g transform="translate(460.103522 481.761875) scale(0.1 -0.1)">
       <use xlink:href="#MicrosoftYaHei-31"/>
       <use xlink:href="#MicrosoftYaHei-32" x="58.642578"/>
       <use xlink:href="#MicrosoftYaHei-35" x="117.285156"/>
      </g>
     </g>
    </g>
    <g id="xtick_7">
     <g id="line2d_13">
      <path d="M 545.372891 466.768125 
L 545.372891 23.248125 
" clip-path="url(#p25f62fca7c)" style="fill: none; stroke: #b0b0b0; stroke-width: 0.8; stroke-linecap: square"/>
     </g>
     <g id="line2d_14">
      <g>
       <use xlink:href="#m773b5b3cd8" x="545.372891" y="466.768125" style="stroke: #000000; stroke-width: 0.8"/>
      </g>
     </g>
     <g id="text_7">
      <!-- 150 -->
      <g transform="translate(536.576798 481.761875) scale(0.1 -0.1)">
       <use xlink:href="#MicrosoftYaHei-31"/>
       <use xlink:href="#MicrosoftYaHei-35" x="58.642578"/>
       <use xlink:href="#MicrosoftYaHei-30" x="117.285156"/>
      </g>
     </g>
    </g>
    <g id="xtick_8">
     <g id="line2d_15">
      <path d="M 621.846167 466.768125 
L 621.846167 23.248125 
" clip-path="url(#p25f62fca7c)" style="fill: none; stroke: #b0b0b0; stroke-width: 0.8; stroke-linecap: square"/>
     </g>
     <g id="line2d_16">
      <g>
       <use xlink:href="#m773b5b3cd8" x="621.846167" y="466.768125" style="stroke: #000000; stroke-width: 0.8"/>
      </g>
     </g>
     <g id="text_8">
      <!-- 175 -->
      <g transform="translate(613.050073 481.761875) scale(0.1 -0.1)">
       <use xlink:href="#MicrosoftYaHei-31"/>
       <use xlink:href="#MicrosoftYaHei-37" x="58.642578"/>
       <use xlink:href="#MicrosoftYaHei-35" x="117.285156"/>
      </g>
     </g>
    </g>
    <g id="xtick_9">
     <g id="line2d_17">
      <path d="M 698.319442 466.768125 
L 698.319442 23.248125 
" clip-path="url(#p25f62fca7c)" style="fill: none; stroke: #b0b0b0; stroke-width: 0.8; stroke-linecap: square"/>
     </g>
     <g id="line2d_18">
      <g>
       <use xlink:href="#m773b5b3cd8" x="698.319442" y="466.768125" style="stroke: #000000; stroke-width: 0.8"/>
      </g>
     </g>
     <g id="text_9">
      <!-- 200 -->
      <g transform="translate(689.523349 481.761875) scale(0.1 -0.1)">
       <use xlink:href="#MicrosoftYaHei-32"/>
       <use xlink:href="#MicrosoftYaHei-30" x="58.642578"/>
       <use xlink:href="#MicrosoftYaHei-30" x="117.285156"/>
      </g>
     </g>
    </g>
    <g id="text_10">
     <!-- 时间步 -->
     <g transform="translate(375.896875 496.241562) scale(0.1 -0.1)">
      <defs>
       <path id="MicrosoftYaHei-65f6" d="M 344 4728 
L 2500 4728 
L 2500 -366 
L 2006 -366 
L 2006 153 
L 838 153 
L 838 -441 
L 344 -441 
L 344 4728 
z
M 2706 3941 
L 4925 3941 
L 4925 5322 
L 5425 5322 
L 5425 3941 
L 6313 3941 
L 6313 3478 
L 5425 3478 
L 5425 116 
Q 5425 -722 4625 -722 
Q 4263 -722 3563 -703 
Q 3531 -478 3463 -178 
Q 4119 -228 4488 -228 
Q 4925 -228 4925 216 
L 4925 3478 
L 2706 3478 
L 2706 3941 
z
M 838 616 
L 2006 616 
L 2006 2234 
L 838 2234 
L 838 616 
z
M 2006 4266 
L 838 4266 
L 838 2684 
L 2006 2684 
L 2006 4266 
z
M 3406 2878 
Q 3906 1966 4163 1422 
Q 4000 1347 3663 1172 
Q 3419 1766 2963 2653 
L 3406 2878 
z
" transform="scale(0.015625)"/>
       <path id="MicrosoftYaHei-95f4" d="M 1863 3647 
L 4513 3647 
L 4513 553 
L 2313 553 
L 2313 166 
L 1863 166 
L 1863 3647 
z
M 2388 4453 
L 2388 4922 
L 6013 4922 
L 6013 -28 
Q 6013 -816 5119 -816 
Q 4756 -816 4169 -803 
Q 4144 -616 4069 -297 
Q 4588 -334 5056 -334 
Q 5525 -334 5525 122 
L 5525 4453 
L 2388 4453 
z
M 419 4084 
L 906 4084 
L 906 -816 
L 419 -816 
L 419 4084 
z
M 2313 997 
L 4063 997 
L 4063 1884 
L 2313 1884 
L 2313 997 
z
M 4063 3203 
L 2313 3203 
L 2313 2328 
L 4063 2328 
L 4063 3203 
z
M 744 5003 
L 1100 5322 
Q 1575 4872 1981 4447 
L 1575 4091 
Q 1194 4541 744 5003 
z
" transform="scale(0.015625)"/>
       <path id="MicrosoftYaHei-6b65" d="M 188 2997 
L 1250 2997 
L 1250 4759 
L 1750 4759 
L 1750 2997 
L 3088 2997 
L 3088 5328 
L 3588 5328 
L 3588 4416 
L 5744 4416 
L 5744 3966 
L 3588 3966 
L 3588 2997 
L 6225 2997 
L 6225 2534 
L 188 2534 
L 188 2997 
z
M 188 -441 
Q 3744 -9 5400 1872 
L 5794 1484 
Q 4013 -453 375 -891 
Q 306 -691 188 -441 
z
M 1794 2147 
L 2194 1803 
Q 1369 947 613 322 
Q 469 497 275 691 
Q 1044 1291 1794 2147 
z
M 3038 2378 
L 3538 2378 
L 3538 528 
L 3038 528 
L 3038 2378 
z
" transform="scale(0.015625)"/>
      </defs>
      <use xlink:href="#MicrosoftYaHei-65f6"/>
      <use xlink:href="#MicrosoftYaHei-95f4" x="100"/>
      <use xlink:href="#MicrosoftYaHei-6b65" x="200"/>
     </g>
    </g>
   </g>
   <g id="matplotlib.axis_2">
    <g id="ytick_1">
     <g id="line2d_19">
      <path d="M 56.096875 436.225118 
L 725.696875 436.225118 
" clip-path="url(#p25f62fca7c)" style="fill: none; stroke: #b0b0b0; stroke-width: 0.8; stroke-linecap: square"/>
     </g>
     <g id="line2d_20">
      <defs>
       <path id="md1b23d85e3" d="M 0 0 
L -3.5 0 
" style="stroke: #000000; stroke-width: 0.8"/>
      </defs>
      <g>
       <use xlink:href="#md1b23d85e3" x="56.096875" y="436.225118" style="stroke: #000000; stroke-width: 0.8"/>
      </g>
     </g>
     <g id="text_11">
      <!-- −1.25 -->
      <g transform="translate(21.679687 440.221993) scale(0.1 -0.1)">
       <defs>
        <path id="MicrosoftYaHei-2212" d="M 3972 1772 
L 788 1772 
L 788 2250 
L 3972 2250 
L 3972 1772 
z
" transform="scale(0.015625)"/>
        <path id="MicrosoftYaHei-2e" d="M 372 322 
Q 372 491 487 606 
Q 603 722 775 722 
Q 950 722 1065 605 
Q 1181 488 1181 322 
Q 1181 159 1065 42 
Q 950 -75 772 -75 
Q 600 -75 486 42 
Q 372 159 372 322 
z
" transform="scale(0.015625)"/>
       </defs>
       <use xlink:href="#MicrosoftYaHei-2212"/>
       <use xlink:href="#MicrosoftYaHei-31" x="74.169922"/>
       <use xlink:href="#MicrosoftYaHei-2e" x="132.8125"/>
       <use xlink:href="#MicrosoftYaHei-32" x="156.884766"/>
       <use xlink:href="#MicrosoftYaHei-35" x="215.527344"/>
      </g>
     </g>
    </g>
    <g id="ytick_2">
     <g id="line2d_21">
      <path d="M 56.096875 378.649036 
L 725.696875 378.649036 
" clip-path="url(#p25f62fca7c)" style="fill: none; stroke: #b0b0b0; stroke-width: 0.8; stroke-linecap: square"/>
     </g>
     <g id="line2d_22">
      <g>
       <use xlink:href="#md1b23d85e3" x="56.096875" y="378.649036" style="stroke: #000000; stroke-width: 0.8"/>
      </g>
     </g>
     <g id="text_12">
      <!-- −1.00 -->
      <g transform="translate(21.679687 382.645911) scale(0.1 -0.1)">
       <use xlink:href="#MicrosoftYaHei-2212"/>
       <use xlink:href="#MicrosoftYaHei-31" x="74.169922"/>
       <use xlink:href="#MicrosoftYaHei-2e" x="132.8125"/>
       <use xlink:href="#MicrosoftYaHei-30" x="156.884766"/>
       <use xlink:href="#MicrosoftYaHei-30" x="215.527344"/>
      </g>
     </g>
    </g>
    <g id="ytick_3">
     <g id="line2d_23">
      <path d="M 56.096875 321.072953 
L 725.696875 321.072953 
" clip-path="url(#p25f62fca7c)" style="fill: none; stroke: #b0b0b0; stroke-width: 0.8; stroke-linecap: square"/>
     </g>
     <g id="line2d_24">
      <g>
       <use xlink:href="#md1b23d85e3" x="56.096875" y="321.072953" style="stroke: #000000; stroke-width: 0.8"/>
      </g>
     </g>
     <g id="text_13">
      <!-- −0.75 -->
      <g transform="translate(21.679687 325.069828) scale(0.1 -0.1)">
       <use xlink:href="#MicrosoftYaHei-2212"/>
       <use xlink:href="#MicrosoftYaHei-30" x="74.169922"/>
       <use xlink:href="#MicrosoftYaHei-2e" x="132.8125"/>
       <use xlink:href="#MicrosoftYaHei-37" x="156.884766"/>
       <use xlink:href="#MicrosoftYaHei-35" x="215.527344"/>
      </g>
     </g>
    </g>
    <g id="ytick_4">
     <g id="line2d_25">
      <path d="M 56.096875 263.496871 
L 725.696875 263.496871 
" clip-path="url(#p25f62fca7c)" style="fill: none; stroke: #b0b0b0; stroke-width: 0.8; stroke-linecap: square"/>
     </g>
     <g id="line2d_26">
      <g>
       <use xlink:href="#md1b23d85e3" x="56.096875" y="263.496871" style="stroke: #000000; stroke-width: 0.8"/>
      </g>
     </g>
     <g id="text_14">
      <!-- −0.50 -->
      <g transform="translate(21.679687 267.493746) scale(0.1 -0.1)">
       <use xlink:href="#MicrosoftYaHei-2212"/>
       <use xlink:href="#MicrosoftYaHei-30" x="74.169922"/>
       <use xlink:href="#MicrosoftYaHei-2e" x="132.8125"/>
       <use xlink:href="#MicrosoftYaHei-35" x="156.884766"/>
       <use xlink:href="#MicrosoftYaHei-30" x="215.527344"/>
      </g>
     </g>
    </g>
    <g id="ytick_5">
     <g id="line2d_27">
      <path d="M 56.096875 205.920789 
L 725.696875 205.920789 
" clip-path="url(#p25f62fca7c)" style="fill: none; stroke: #b0b0b0; stroke-width: 0.8; stroke-linecap: square"/>
     </g>
     <g id="line2d_28">
      <g>
       <use xlink:href="#md1b23d85e3" x="56.096875" y="205.920789" style="stroke: #000000; stroke-width: 0.8"/>
      </g>
     </g>
     <g id="text_15">
      <!-- −0.25 -->
      <g transform="translate(21.679687 209.917664) scale(0.1 -0.1)">
       <use xlink:href="#MicrosoftYaHei-2212"/>
       <use xlink:href="#MicrosoftYaHei-30" x="74.169922"/>
       <use xlink:href="#MicrosoftYaHei-2e" x="132.8125"/>
       <use xlink:href="#MicrosoftYaHei-32" x="156.884766"/>
       <use xlink:href="#MicrosoftYaHei-35" x="215.527344"/>
      </g>
     </g>
    </g>
    <g id="ytick_6">
     <g id="line2d_29">
      <path d="M 56.096875 148.344706 
L 725.696875 148.344706 
" clip-path="url(#p25f62fca7c)" style="fill: none; stroke: #b0b0b0; stroke-width: 0.8; stroke-linecap: square"/>
     </g>
     <g id="line2d_30">
      <g>
       <use xlink:href="#md1b23d85e3" x="56.096875" y="148.344706" style="stroke: #000000; stroke-width: 0.8"/>
      </g>
     </g>
     <g id="text_16">
      <!-- 0.00 -->
      <g transform="translate(29.096875 152.341581) scale(0.1 -0.1)">
       <use xlink:href="#MicrosoftYaHei-30"/>
       <use xlink:href="#MicrosoftYaHei-2e" x="58.642578"/>
       <use xlink:href="#MicrosoftYaHei-30" x="82.714844"/>
       <use xlink:href="#MicrosoftYaHei-30" x="141.357422"/>
      </g>
     </g>
    </g>
    <g id="ytick_7">
     <g id="line2d_31">
      <path d="M 56.096875 90.768624 
L 725.696875 90.768624 
" clip-path="url(#p25f62fca7c)" style="fill: none; stroke: #b0b0b0; stroke-width: 0.8; stroke-linecap: square"/>
     </g>
     <g id="line2d_32">
      <g>
       <use xlink:href="#md1b23d85e3" x="56.096875" y="90.768624" style="stroke: #000000; stroke-width: 0.8"/>
      </g>
     </g>
     <g id="text_17">
      <!-- 0.25 -->
      <g transform="translate(29.096875 94.765499) scale(0.1 -0.1)">
       <use xlink:href="#MicrosoftYaHei-30"/>
       <use xlink:href="#MicrosoftYaHei-2e" x="58.642578"/>
       <use xlink:href="#MicrosoftYaHei-32" x="82.714844"/>
       <use xlink:href="#MicrosoftYaHei-35" x="141.357422"/>
      </g>
     </g>
    </g>
    <g id="ytick_8">
     <g id="line2d_33">
      <path d="M 56.096875 33.192541 
L 725.696875 33.192541 
" clip-path="url(#p25f62fca7c)" style="fill: none; stroke: #b0b0b0; stroke-width: 0.8; stroke-linecap: square"/>
     </g>
     <g id="line2d_34">
      <g>
       <use xlink:href="#md1b23d85e3" x="56.096875" y="33.192541" style="stroke: #000000; stroke-width: 0.8"/>
      </g>
     </g>
     <g id="text_18">
      <!-- 0.50 -->
      <g transform="translate(29.096875 37.189416) scale(0.1 -0.1)">
       <use xlink:href="#MicrosoftYaHei-30"/>
       <use xlink:href="#MicrosoftYaHei-2e" x="58.642578"/>
       <use xlink:href="#MicrosoftYaHei-35" x="82.714844"/>
       <use xlink:href="#MicrosoftYaHei-30" x="141.357422"/>
      </g>
     </g>
    </g>
    <g id="text_19">
     <!-- x值 -->
     <g transform="translate(15.19375 252.5425) rotate(-90) scale(0.1 -0.1)">
      <defs>
       <path id="MicrosoftYaHei-78" d="M 3163 3456 
L 2006 1716 
L 3147 0 
L 2434 0 
L 1775 1100 
Q 1722 1188 1625 1369 
L 1613 1369 
Q 1609 1350 1456 1100 
L 784 0 
L 81 0 
L 1256 1697 
L 134 3456 
L 847 3456 
L 1494 2300 
Q 1553 2194 1638 2025 
L 1650 2025 
L 2491 3456 
L 3163 3456 
z
" transform="scale(0.015625)"/>
       <path id="MicrosoftYaHei-503c" d="M 1619 -216 
L 2250 -216 
L 2250 3653 
L 3725 3653 
L 3725 4222 
L 1913 4222 
L 1913 4647 
L 3725 4647 
L 3725 5309 
L 4200 5309 
L 4200 4647 
L 6169 4647 
L 6169 4222 
L 4200 4222 
L 4200 3653 
L 5713 3653 
L 5713 -216 
L 6306 -216 
L 6306 -641 
L 1619 -641 
L 1619 -216 
z
M 69 2247 
Q 906 3497 1369 5278 
L 1831 5141 
Q 1581 4334 1288 3628 
L 1288 -816 
L 831 -816 
L 831 2666 
Q 563 2166 263 1734 
Q 175 1997 69 2247 
z
M 2713 -216 
L 5250 -216 
L 5250 353 
L 2713 353 
L 2713 -216 
z
M 5250 3241 
L 2713 3241 
L 2713 2678 
L 5250 2678 
L 5250 3241 
z
M 2713 1716 
L 5250 1716 
L 5250 2278 
L 2713 2278 
L 2713 1716 
z
M 2713 753 
L 5250 753 
L 5250 1316 
L 2713 1316 
L 2713 753 
z
" transform="scale(0.015625)"/>
      </defs>
      <use xlink:href="#MicrosoftYaHei-78"/>
      <use xlink:href="#MicrosoftYaHei-503c" x="50.683594"/>
     </g>
    </g>
   </g>
   <g id="line2d_35">
    <path d="M 86.533239 125.318879 
L 107.945756 125.487769 
L 126.299342 125.840002 
L 144.652928 126.406018 
L 163.006514 127.207775 
L 178.301169 128.072312 
L 193.595824 129.129684 
L 208.890479 130.393477 
L 224.185134 131.877367 
L 239.47979 133.595018 
L 254.774445 135.55995 
L 270.0691 137.785406 
L 285.363755 140.284186 
L 297.599479 142.488214 
L 309.835203 144.880844 
L 322.070927 147.467533 
L 334.306651 150.253251 
L 346.542375 153.242398 
L 358.778099 156.438716 
L 371.013823 159.845196 
L 383.249547 163.463982 
L 395.485272 167.296274 
L 407.720996 171.342219 
L 419.95672 175.600819 
L 432.192444 180.069819 
L 444.428168 184.745616 
L 456.663892 189.62316 
L 471.958547 195.993614 
L 487.253202 202.652474 
L 502.547857 209.579193 
L 517.842512 216.748956 
L 536.196098 225.632147 
L 554.549685 234.764566 
L 579.021133 247.211507 
L 640.199753 278.501723 
L 658.553339 287.570396 
L 673.847994 294.890657 
L 689.142649 301.936495 
L 695.260511 304.665793 
L 695.260511 304.665793 
" clip-path="url(#p25f62fca7c)" style="fill: none; stroke: #1f77b4; stroke-width: 1.5; stroke-linecap: square"/>
   </g>
   <g id="line2d_36">
    <path d="M 86.533239 124.416086 
L 95.710032 121.552658 
L 104.886825 118.434401 
L 114.063618 115.06718 
L 123.240411 111.469693 
L 135.476135 106.380855 
L 166.065445 93.401523 
L 172.183307 91.07597 
L 178.301169 88.964427 
L 184.419031 87.127592 
L 190.536893 85.625439 
L 196.654755 84.513645 
L 199.713686 84.119429 
L 202.772617 83.839834 
L 205.831548 83.678992 
L 208.890479 83.640142 
L 211.94941 83.72558 
L 215.008341 83.936633 
L 218.067272 84.273644 
L 221.126203 84.736001 
L 224.185134 85.322168 
L 227.244065 86.029753 
L 233.361928 87.795813 
L 239.47979 90.001202 
L 245.597652 92.605331 
L 251.715514 95.56337 
L 257.833376 98.829296 
L 263.951238 102.358338 
L 270.0691 106.108725 
L 279.245893 112.068067 
L 288.422686 118.333627 
L 300.65841 127.019393 
L 315.953065 138.20977 
L 340.424513 156.473753 
L 386.308478 190.782943 
L 407.720996 206.532321 
L 429.133513 221.993614 
L 447.487099 234.958987 
L 462.781754 245.525665 
L 478.076409 255.848348 
L 493.371064 265.901544 
L 508.665719 275.660365 
L 520.901443 283.239171 
L 533.137167 290.602003 
L 545.372891 297.737127 
L 557.608616 304.633164 
L 569.84434 311.279105 
L 582.080064 317.664337 
L 594.315788 323.778655 
L 606.551512 329.612288 
L 618.787236 335.155908 
L 631.02296 340.400651 
L 643.258684 345.338128 
L 652.435477 348.834824 
L 661.61227 352.151085 
L 670.789063 355.283926 
L 679.965856 358.230528 
L 689.142649 360.988241 
L 695.260511 362.720544 
L 695.260511 362.720544 
" clip-path="url(#p25f62fca7c)" style="fill: none; stroke: #ff7f0e; stroke-width: 1.5; stroke-linecap: square"/>
   </g>
   <g id="line2d_37">
    <path d="M 86.533239 125.088575 
L 111.004687 123.395222 
L 129.358273 122.309933 
L 147.711859 121.455392 
L 163.006514 120.97591 
L 175.242238 120.78214 
L 187.477962 120.789731 
L 199.713686 121.032 
L 211.94941 121.545306 
L 221.126203 122.131727 
L 230.302997 122.910367 
L 239.47979 123.899749 
L 248.656583 125.119151 
L 257.833376 126.588485 
L 267.010169 128.328135 
L 276.186962 130.358748 
L 285.363755 132.700989 
L 294.540548 135.375232 
L 300.65841 137.352287 
L 306.776272 139.491294 
L 312.894134 141.797591 
L 319.011996 144.276188 
L 325.129858 146.931702 
L 331.24772 149.768283 
L 337.365582 152.789547 
L 343.483444 155.998505 
L 349.601306 159.397487 
L 355.719168 162.988077 
L 361.83703 166.771046 
L 367.954892 170.74629 
L 374.072754 174.912776 
L 380.190616 179.268497 
L 389.367409 186.150013 
L 398.544203 193.435732 
L 407.720996 201.105845 
L 416.897789 209.135405 
L 426.074582 217.494622 
L 435.251375 226.149338 
L 444.428168 235.061652 
L 456.663892 247.274457 
L 471.958547 262.925588 
L 502.547857 294.734567 
L 520.901443 313.623409 
L 533.137167 325.951288 
L 545.372891 337.982027 
L 557.608616 349.654268 
L 566.785409 358.142079 
L 575.962202 366.381301 
L 585.138995 374.356727 
L 594.315788 382.055674 
L 603.492581 389.467707 
L 612.669374 396.584357 
L 621.846167 403.398855 
L 631.02296 409.905881 
L 640.199753 416.101331 
L 649.376546 421.982116 
L 658.553339 427.545978 
L 667.730132 432.791336 
L 676.906925 437.717155 
L 686.083718 442.322836 
L 695.260511 446.608125 
L 695.260511 446.608125 
" clip-path="url(#p25f62fca7c)" style="fill: none; stroke: #2ca02c; stroke-width: 1.5; stroke-linecap: square"/>
   </g>
   <g id="line2d_38">
    <path d="M 86.533239 126.240097 
L 92.651101 128.324953 
L 98.768963 130.713727 
L 104.886825 133.394851 
L 111.004687 136.353134 
L 117.122549 139.569768 
L 123.240411 143.022355 
L 129.358273 146.684994 
L 138.535066 152.507824 
L 147.711859 158.624298 
L 178.301169 179.412968 
L 184.419031 183.312415 
L 190.536893 187.016132 
L 196.654755 190.476301 
L 202.772617 193.645586 
L 208.890479 196.477659 
L 215.008341 198.927747 
L 221.126203 200.953186 
L 224.185134 201.794043 
L 227.244065 202.513975 
L 230.302997 203.108489 
L 233.361928 203.573327 
L 236.420859 203.904482 
L 239.47979 204.098214 
L 242.538721 204.151069 
L 245.597652 204.059891 
L 248.656583 203.821838 
L 251.715514 203.434399 
L 254.774445 202.895404 
L 257.833376 202.203041 
L 260.892307 201.355866 
L 263.951238 200.352817 
L 267.010169 199.193225 
L 270.0691 197.876822 
L 273.128031 196.403755 
L 276.186962 194.77459 
L 279.245893 192.990322 
L 282.304824 191.052384 
L 285.363755 188.962646 
L 288.422686 186.723427 
L 291.481617 184.337493 
L 297.599479 179.13881 
L 303.717341 173.397769 
L 309.835203 167.15275 
L 315.953065 160.449229 
L 322.070927 153.339587 
L 328.188789 145.882834 
L 337.365582 134.191253 
L 349.601306 118.043993 
L 361.83703 101.854753 
L 371.013823 90.106344 
L 377.131685 82.632219 
L 383.249547 75.552151 
L 389.367409 68.957749 
L 395.485272 62.938957 
L 398.544203 60.172797 
L 401.603134 57.582959 
L 404.662065 55.179728 
L 407.720996 52.973081 
L 410.779927 50.972649 
L 413.838858 49.187683 
L 416.897789 47.627023 
L 419.95672 46.29906 
L 423.015651 45.211707 
L 426.074582 44.372367 
L 429.133513 43.787899 
L 432.192444 43.46459 
L 435.251375 43.408125 
L 438.310306 43.623559 
L 441.369237 44.11529 
L 444.428168 44.887035 
L 447.487099 45.941803 
L 450.54603 47.281875 
L 453.604961 48.908785 
L 456.663892 50.823298 
L 459.722823 53.025393 
L 462.781754 55.514252 
L 465.840685 58.288243 
L 468.899616 61.344912 
L 471.958547 64.680973 
L 475.017478 68.292305 
L 478.076409 72.173944 
L 481.13534 76.320085 
L 484.194271 80.724082 
L 487.253202 85.378456 
L 490.312133 90.274893 
L 493.371064 95.404262 
L 499.488926 106.321242 
L 505.606788 118.040453 
L 511.72465 130.460869 
L 517.842512 143.470151 
L 523.960374 156.945585 
L 533.137167 177.741815 
L 551.490753 219.64339 
L 557.608616 233.142688 
L 563.726478 246.147292 
L 569.84434 258.501233 
L 575.962202 270.051495 
L 579.021133 275.478709 
L 582.080064 280.649935 
L 585.138995 285.547729 
L 588.197926 290.15519 
L 591.256857 294.456017 
L 594.315788 298.434565 
L 597.374719 302.075901 
L 600.43365 305.365857 
L 603.492581 308.291082 
L 606.551512 310.839095 
L 609.610443 312.998329 
L 612.669374 314.758178 
L 615.728305 316.109044 
L 618.787236 317.042373 
L 621.846167 317.550695 
L 624.905098 317.627659 
L 627.964029 317.268065 
L 631.02296 316.46789 
L 634.081891 315.224319 
L 637.140822 313.535761 
L 640.199753 311.401868 
L 643.258684 308.823552 
L 646.317615 305.802994 
L 649.376546 302.343651 
L 652.435477 298.450257 
L 655.494408 294.128824 
L 658.553339 289.386634 
L 661.61227 284.232235 
L 664.671201 278.67542 
L 667.730132 272.727218 
L 670.789063 266.399864 
L 673.847994 259.706782 
L 676.906925 252.66255 
L 679.965856 245.282868 
L 686.083718 229.585352 
L 692.20158 212.760809 
L 695.260511 203.97592 
L 695.260511 203.97592 
" clip-path="url(#p25f62fca7c)" style="fill: none; stroke: #d62728; stroke-width: 1.5; stroke-linecap: square"/>
   </g>
   <g id="patch_3">
    <path d="M 56.096875 466.768125 
L 56.096875 23.248125 
" style="fill: none; stroke: #000000; stroke-width: 0.8; stroke-linejoin: miter; stroke-linecap: square"/>
   </g>
   <g id="patch_4">
    <path d="M 725.696875 466.768125 
L 725.696875 23.248125 
" style="fill: none; stroke: #000000; stroke-width: 0.8; stroke-linejoin: miter; stroke-linecap: square"/>
   </g>
   <g id="patch_5">
    <path d="M 56.096875 466.768125 
L 725.696875 466.768125 
" style="fill: none; stroke: #000000; stroke-width: 0.8; stroke-linejoin: miter; stroke-linecap: square"/>
   </g>
   <g id="patch_6">
    <path d="M 56.096875 23.248125 
L 725.696875 23.248125 
" style="fill: none; stroke: #000000; stroke-width: 0.8; stroke-linejoin: miter; stroke-linecap: square"/>
   </g>
   <g id="text_20">
    <!-- Hopf振荡器的x值随时间变化 -->
    <g transform="translate(313.6075 17.248125) scale(0.12 -0.12)">
     <defs>
      <path id="MicrosoftYaHei-48" d="M 4325 0 
L 3700 0 
L 3700 2181 
L 1250 2181 
L 1250 0 
L 625 0 
L 625 4841 
L 1250 4841 
L 1250 2738 
L 3700 2738 
L 3700 4841 
L 4325 4841 
L 4325 0 
z
" transform="scale(0.015625)"/>
      <path id="MicrosoftYaHei-6f" d="M 316 1691 
Q 316 2547 794 3042 
Q 1272 3538 2091 3538 
Q 2869 3538 3311 3061 
Q 3753 2584 3753 1744 
Q 3753 925 3281 422 
Q 2809 -81 2016 -81 
Q 1241 -81 778 406 
Q 316 894 316 1691 
z
M 941 1709 
Q 941 1113 1242 769 
Q 1544 425 2053 425 
Q 2578 425 2853 761 
Q 3128 1097 3128 1725 
Q 3128 2356 2853 2693 
Q 2578 3031 2053 3031 
Q 1538 3031 1239 2678 
Q 941 2325 941 1709 
z
" transform="scale(0.015625)"/>
      <path id="MicrosoftYaHei-70" d="M 1159 488 
L 1159 -1591 
L 547 -1591 
L 547 3456 
L 1159 3456 
L 1159 2859 
L 1172 2859 
Q 1578 3538 2359 3538 
Q 3022 3538 3398 3073 
Q 3775 2609 3775 1828 
Q 3775 966 3348 442 
Q 2922 -81 2200 -81 
Q 1534 -81 1172 488 
L 1159 488 
z
M 1156 1425 
Q 1156 1003 1428 714 
Q 1700 425 2109 425 
Q 2597 425 2872 800 
Q 3147 1175 3147 1838 
Q 3147 2397 2890 2714 
Q 2634 3031 2191 3031 
Q 1738 3031 1447 2709 
Q 1156 2388 1156 1884 
L 1156 1425 
z
" transform="scale(0.015625)"/>
      <path id="MicrosoftYaHei-66" d="M 2319 4594 
Q 2147 4684 1947 4684 
Q 1372 4684 1372 3972 
L 1372 3456 
L 2181 3456 
L 2181 2950 
L 1372 2950 
L 1372 0 
L 766 0 
L 766 2950 
L 175 2950 
L 175 3456 
L 766 3456 
L 766 4000 
Q 766 4556 1086 4873 
Q 1406 5191 1900 5191 
Q 2163 5191 2319 5131 
L 2319 4594 
z
" transform="scale(0.015625)"/>
      <path id="MicrosoftYaHei-632f" d="M 5813 1934 
L 6138 1572 
Q 5619 1197 5038 816 
Q 5531 59 6331 -284 
Q 6213 -428 5981 -728 
Q 4481 103 4044 2128 
L 3606 2128 
L 3606 -97 
Q 4000 84 4519 353 
Q 4538 141 4594 -103 
Q 4094 -347 3744 -528 
Q 3463 -678 3263 -834 
L 2950 -422 
Q 3169 -197 3156 128 
L 3156 2128 
L 2725 2128 
Q 2669 259 1913 -822 
Q 1738 -616 1544 -459 
Q 2256 547 2256 2497 
L 2256 4909 
L 6113 4909 
L 6113 4484 
L 2731 4484 
L 2731 2553 
L 6175 2553 
L 6175 2128 
L 4488 2128 
Q 4619 1603 4831 1178 
Q 5350 1559 5813 1934 
z
M 88 1972 
Q 469 2084 875 2216 
L 875 3672 
L 144 3672 
L 144 4097 
L 875 4097 
L 875 5259 
L 1350 5259 
L 1350 4097 
L 2013 4097 
L 2013 3672 
L 1350 3672 
L 1350 2378 
Q 1663 2497 2000 2622 
Q 2000 2322 2013 2134 
Q 1688 2016 1350 1897 
L 1350 -109 
Q 1350 -766 794 -784 
Q 513 -797 156 -791 
Q 119 -528 75 -272 
Q 419 -309 638 -309 
Q 875 -309 875 -72 
L 875 1722 
Q 519 1591 156 1453 
L 88 1972 
z
M 3088 3716 
L 5881 3716 
L 5881 3291 
L 3088 3291 
L 3088 3716 
z
" transform="scale(0.015625)"/>
      <path id="MicrosoftYaHei-8361" d="M 4575 3059 
L 2100 3059 
L 2100 3497 
L 5500 3497 
L 5500 3009 
L 3056 1972 
L 6094 1972 
Q 6031 834 5956 147 
Q 5863 -741 5113 -741 
Q 4769 -741 4288 -722 
Q 4256 -503 4181 -234 
Q 4688 -278 5025 -278 
Q 5431 -278 5494 166 
Q 5569 753 5619 1534 
L 4881 1534 
Q 4456 -116 3175 -859 
Q 2981 -609 2813 -472 
Q 4006 159 4406 1534 
L 3575 1534 
Q 3063 247 1888 -322 
Q 1713 -47 1563 109 
Q 2688 634 3081 1534 
L 2088 1534 
L 2088 2003 
L 4575 3059 
z
M 4050 5253 
L 4550 5253 
L 4550 4647 
L 6256 4647 
L 6256 4209 
L 4550 4209 
L 4550 3691 
L 4050 3691 
L 4050 4209 
L 2363 4209 
L 2363 3691 
L 1863 3691 
L 1863 4209 
L 138 4209 
L 138 4647 
L 1863 4647 
L 1863 5253 
L 2363 5253 
L 2363 4647 
L 4050 4647 
L 4050 5253 
z
M 1338 1478 
Q 1500 1341 1750 1178 
Q 988 -247 675 -772 
L 238 -466 
Q 844 428 1338 1478 
z
M 969 3753 
Q 1644 3266 1969 2984 
L 1644 2584 
Q 1119 3078 681 3397 
L 969 3753 
z
M 419 2747 
Q 1013 2309 1388 1978 
L 1088 1584 
Q 463 2147 131 2372 
L 419 2747 
z
" transform="scale(0.015625)"/>
      <path id="MicrosoftYaHei-5668" d="M 300 2691 
L 2825 2691 
Q 2922 2925 2950 3234 
L 3400 3172 
Q 3363 2909 3291 2691 
L 4653 2691 
Q 4403 2872 4125 3047 
L 4381 3328 
Q 4794 3084 5125 2841 
L 4984 2691 
L 6150 2691 
L 6150 2278 
L 3738 2278 
Q 4459 1572 6300 1609 
Q 6150 1353 6044 1128 
Q 5878 1141 5725 1156 
L 5725 -753 
L 5288 -753 
L 5288 -409 
L 3950 -409 
L 3950 -747 
L 3513 -747 
L 3513 1184 
L 5503 1184 
Q 3716 1425 3219 2278 
L 3106 2278 
Q 2756 1534 838 1184 
L 2838 1184 
L 2838 -747 
L 2400 -747 
L 2400 -409 
L 1081 -409 
L 1081 -753 
L 644 -753 
L 644 1147 
Q 478 1116 300 1084 
Q 206 1272 56 1528 
Q 2144 1797 2563 2278 
L 300 2278 
L 300 2691 
z
M 3506 4966 
L 5719 4966 
L 5719 3122 
L 5281 3122 
L 5281 3341 
L 3944 3341 
L 3944 3147 
L 3506 3147 
L 3506 4966 
z
M 638 4966 
L 2831 4966 
L 2831 3147 
L 2394 3147 
L 2394 3341 
L 1075 3341 
L 1075 3084 
L 638 3084 
L 638 4966 
z
M 5281 4578 
L 3944 4578 
L 3944 3728 
L 5281 3728 
L 5281 4578 
z
M 2394 4578 
L 1075 4578 
L 1075 3728 
L 2394 3728 
L 2394 4578 
z
M 5288 797 
L 3950 797 
L 3950 -22 
L 5288 -22 
L 5288 797 
z
M 2400 797 
L 1081 797 
L 1081 -22 
L 2400 -22 
L 2400 797 
z
" transform="scale(0.015625)"/>
      <path id="MicrosoftYaHei-7684" d="M 356 4284 
L 988 4284 
Q 1219 4853 1369 5322 
L 1894 5172 
Q 1697 4694 1513 4284 
L 2763 4284 
L 2763 -691 
L 2263 -691 
L 2263 -203 
L 856 -203 
L 856 -734 
L 356 -734 
L 356 4284 
z
M 2856 3003 
Q 3444 3934 3850 5322 
L 4375 5191 
Q 4216 4719 4050 4303 
L 6063 4303 
Q 5988 1091 5938 259 
Q 5894 -722 4906 -722 
Q 4338 -722 3750 -684 
Q 3713 -372 3650 -128 
L 3669 -128 
Q 4294 -216 4813 -216 
Q 5381 -216 5425 384 
Q 5494 1316 5525 3834 
L 3850 3834 
Q 3578 3231 3288 2772 
Q 3119 2891 2856 3003 
z
M 856 266 
L 2263 266 
L 2263 1847 
L 856 1847 
L 856 266 
z
M 2263 3816 
L 856 3816 
L 856 2297 
L 2263 2297 
L 2263 3816 
z
M 3406 2578 
L 3788 2859 
Q 4481 2041 4894 1441 
L 4431 1116 
Q 3988 1841 3406 2578 
z
" transform="scale(0.015625)"/>
      <path id="MicrosoftYaHei-968f" d="M 3256 4641 
L 4128 4641 
Q 4247 4963 4331 5291 
L 4756 5172 
Q 4663 4897 4563 4641 
L 6181 4641 
L 6181 4228 
L 4397 4228 
Q 4266 3916 4122 3628 
L 5794 3628 
L 5794 791 
Q 5794 134 5156 134 
L 4569 134 
Q 4563 178 4481 597 
Q 4838 578 5056 578 
Q 5369 578 5369 891 
L 5369 1328 
L 4113 1328 
L 4113 122 
L 3688 122 
L 3688 2841 
Q 3459 2475 3213 2153 
Q 3119 2397 3019 2597 
Q 3600 3394 3963 4228 
L 3256 4228 
L 3256 4641 
z
M 2081 1809 
Q 2225 666 1531 509 
Q 1325 466 969 503 
Q 925 697 844 991 
Q 1163 916 1375 947 
Q 1756 1009 1625 1809 
Q 1531 2241 1075 2772 
Q 1325 3578 1563 4459 
L 831 4459 
L 831 -809 
L 388 -809 
L 388 4909 
L 2025 4909 
L 2025 4459 
Q 1788 3647 1550 2853 
Q 1975 2359 2081 1809 
z
M 3969 -172 
Q 4688 -203 6244 -153 
Q 6144 -409 6063 -647 
Q 4763 -672 3956 -622 
Q 3069 -584 2600 78 
Q 2275 -366 1988 -834 
L 1681 -447 
Q 1891 -131 2444 572 
L 2444 2709 
L 1938 2709 
L 1938 3134 
L 2881 3134 
L 2881 403 
Q 3263 -156 3969 -172 
z
M 4113 1716 
L 5369 1716 
L 5369 2278 
L 4113 2278 
L 4113 1716 
z
M 5369 3228 
L 4113 3228 
L 4113 2666 
L 5369 2666 
L 5369 3228 
z
M 2575 5253 
Q 2881 4491 3044 3959 
Q 2794 3878 2606 3797 
Q 2450 4378 2181 5116 
L 2575 5253 
z
" transform="scale(0.015625)"/>
      <path id="MicrosoftYaHei-53d8" d="M 838 1634 
L 838 2066 
L 5088 2066 
L 5088 1634 
Q 4494 853 3659 309 
Q 4675 -178 6313 -297 
Q 6088 -609 5950 -822 
Q 4275 -594 3178 34 
Q 2122 -509 425 -866 
Q 269 -622 106 -403 
Q 1741 -122 2728 328 
Q 2047 838 1553 1634 
L 838 1634 
z
M 231 4534 
L 3081 4534 
Q 2888 4884 2725 5141 
L 3175 5359 
Q 3481 4884 3600 4659 
L 3359 4534 
L 6200 4534 
L 6200 4091 
L 4181 4091 
L 4181 2353 
L 3700 2353 
L 3700 4091 
L 2694 4091 
L 2694 2341 
L 2213 2341 
L 2213 4091 
L 231 4091 
L 231 4534 
z
M 4475 1634 
L 2116 1634 
Q 2575 953 3197 572 
Q 3947 1016 4475 1634 
z
M 4556 3434 
L 4900 3728 
Q 5700 3009 6213 2459 
L 5825 2116 
Q 5219 2797 4556 3434 
z
M 1381 3741 
L 1756 3422 
Q 1119 2691 500 2097 
Q 344 2272 138 2447 
Q 794 3009 1381 3741 
z
" transform="scale(0.015625)"/>
      <path id="MicrosoftYaHei-5316" d="M 1844 1453 
Q 2663 1834 3375 2331 
L 3375 5197 
L 3913 5197 
L 3913 2734 
Q 4869 3506 5613 4516 
L 6069 4184 
Q 5159 2975 3913 2069 
L 3913 303 
Q 3913 -122 4363 -122 
L 5156 -122 
Q 5581 -122 5650 284 
Q 5738 709 5763 1266 
Q 6025 1166 6313 1084 
Q 6263 559 6181 122 
Q 6063 -597 5281 -597 
L 4225 -597 
Q 3375 -597 3375 241 
L 3375 1703 
Q 2791 1328 2144 1016 
Q 2013 1222 1844 1453 
z
M 88 2222 
Q 1175 3666 1688 5291 
L 2231 5134 
Q 1934 4359 1588 3675 
L 1588 -797 
L 1063 -797 
L 1063 2734 
Q 716 2172 325 1678 
Q 219 1947 88 2222 
z
" transform="scale(0.015625)"/>
     </defs>
     <use xlink:href="#MicrosoftYaHei-48"/>
     <use xlink:href="#MicrosoftYaHei-6f" x="77.34375"/>
     <use xlink:href="#MicrosoftYaHei-70" x="140.917969"/>
     <use xlink:href="#MicrosoftYaHei-66" x="202.785156"/>
     <use xlink:href="#MicrosoftYaHei-632f" x="237.453125"/>
     <use xlink:href="#MicrosoftYaHei-8361" x="337.453125"/>
     <use xlink:href="#MicrosoftYaHei-5668" x="437.453125"/>
     <use xlink:href="#MicrosoftYaHei-7684" x="537.453125"/>
     <use xlink:href="#MicrosoftYaHei-78" x="637.453125"/>
     <use xlink:href="#MicrosoftYaHei-503c" x="688.136719"/>
     <use xlink:href="#MicrosoftYaHei-968f" x="788.136719"/>
     <use xlink:href="#MicrosoftYaHei-65f6" x="888.136719"/>
     <use xlink:href="#MicrosoftYaHei-95f4" x="988.136719"/>
     <use xlink:href="#MicrosoftYaHei-53d8" x="1088.136719"/>
     <use xlink:href="#MicrosoftYaHei-5316" x="1188.136719"/>
    </g>
   </g>
   <g id="legend_1">
    <g id="patch_7">
     <path d="M 614.423437 93.166875 
L 718.696875 93.166875 
Q 720.696875 93.166875 720.696875 91.166875 
L 720.696875 30.248125 
Q 720.696875 28.248125 718.696875 28.248125 
L 614.423437 28.248125 
Q 612.423437 28.248125 612.423437 30.248125 
L 612.423437 91.166875 
Q 612.423437 93.166875 614.423437 93.166875 
z
" style="fill: #ffffff; opacity: 0.8; stroke: #cccccc; stroke-linejoin: miter"/>
    </g>
    <g id="line2d_39">
     <path d="M 616.423437 36.741875 
L 626.423437 36.741875 
L 636.423437 36.741875 
" style="fill: none; stroke: #1f77b4; stroke-width: 1.5; stroke-linecap: square"/>
    </g>
    <g id="text_21">
     <!-- α=1, μ=1, ω=1 -->
     <g transform="translate(644.423437 40.241875) scale(0.1 -0.1)">
      <defs>
       <path id="MicrosoftYaHei-3b1" d="M 3425 1756 
Q 3550 1034 3676 781 
Q 3803 528 4000 528 
Q 4094 528 4150 550 
L 4150 19 
Q 3947 -31 3806 -31 
Q 3269 -31 3078 934 
L 3066 934 
Q 2575 -81 1684 -81 
Q 1053 -81 675 401 
Q 297 884 297 1628 
Q 297 2469 733 3003 
Q 1169 3538 1909 3538 
Q 2341 3538 2669 3289 
Q 2997 3041 3159 2600 
L 3175 2600 
L 3453 3456 
L 4088 3456 
L 3425 1756 
z
M 2919 1759 
Q 2647 3038 1931 3038 
Q 1466 3038 1194 2638 
Q 922 2238 922 1663 
Q 922 1150 1151 797 
Q 1381 444 1778 444 
Q 2491 444 2869 1609 
L 2919 1759 
z
" transform="scale(0.015625)"/>
       <path id="MicrosoftYaHei-3d" d="M 3972 2497 
L 788 2497 
L 788 2969 
L 3972 2969 
L 3972 2497 
z
M 3972 1053 
L 788 1053 
L 788 1525 
L 3972 1525 
L 3972 1053 
z
" transform="scale(0.015625)"/>
       <path id="MicrosoftYaHei-2c" d="M 1109 778 
L 575 -888 
L 131 -888 
L 519 778 
L 1109 778 
z
" transform="scale(0.015625)"/>
       <path id="MicrosoftYaHei-20" transform="scale(0.015625)"/>
       <path id="MicrosoftYaHei-3bc" d="M 2947 0 
Q 2869 238 2869 559 
L 2853 559 
Q 2578 -78 1934 -78 
Q 1400 -78 1169 316 
L 1156 316 
L 1156 -1338 
L 547 -1338 
L 547 3456 
L 1156 3456 
L 1156 1359 
Q 1156 941 1379 695 
Q 1603 450 1966 450 
Q 2363 450 2606 734 
Q 2850 1019 2850 1494 
L 2850 3456 
L 3469 3456 
L 3469 913 
Q 3469 259 3581 0 
L 2947 0 
z
" transform="scale(0.015625)"/>
       <path id="MicrosoftYaHei-3c9" d="M 2806 559 
L 2794 559 
Q 2447 -78 1763 -78 
Q 1119 -78 756 364 
Q 394 806 394 1547 
Q 394 2425 819 3456 
L 1488 3456 
Q 1003 2391 1003 1531 
Q 1003 1031 1197 740 
Q 1391 450 1753 450 
Q 2503 450 2503 1575 
L 2503 2531 
L 3106 2531 
L 3106 1575 
Q 3106 450 3850 450 
Q 4203 450 4401 726 
Q 4600 1003 4600 1531 
Q 4600 2391 4116 3456 
L 4784 3456 
Q 5213 2413 5213 1547 
Q 5213 813 4852 367 
Q 4491 -78 3834 -78 
Q 3144 -78 2806 559 
z
" transform="scale(0.015625)"/>
      </defs>
      <use xlink:href="#MicrosoftYaHei-3b1"/>
      <use xlink:href="#MicrosoftYaHei-3d" x="66.601562"/>
      <use xlink:href="#MicrosoftYaHei-31" x="140.771484"/>
      <use xlink:href="#MicrosoftYaHei-2c" x="199.414062"/>
      <use xlink:href="#MicrosoftYaHei-20" x="223.486328"/>
      <use xlink:href="#MicrosoftYaHei-3bc" x="253.076172"/>
      <use xlink:href="#MicrosoftYaHei-3d" x="315.869141"/>
      <use xlink:href="#MicrosoftYaHei-31" x="390.039062"/>
      <use xlink:href="#MicrosoftYaHei-2c" x="448.681641"/>
      <use xlink:href="#MicrosoftYaHei-20" x="472.753906"/>
      <use xlink:href="#MicrosoftYaHei-3c9" x="502.34375"/>
      <use xlink:href="#MicrosoftYaHei-3d" x="589.892578"/>
      <use xlink:href="#MicrosoftYaHei-31" x="664.0625"/>
     </g>
    </g>
    <g id="line2d_40">
     <path d="M 616.423437 52.221562 
L 626.423437 52.221562 
L 636.423437 52.221562 
" style="fill: none; stroke: #ff7f0e; stroke-width: 1.5; stroke-linecap: square"/>
    </g>
    <g id="text_22">
     <!-- α=5, μ=1, ω=1 -->
     <g transform="translate(644.423437 55.721562) scale(0.1 -0.1)">
      <use xlink:href="#MicrosoftYaHei-3b1"/>
      <use xlink:href="#MicrosoftYaHei-3d" x="66.601562"/>
      <use xlink:href="#MicrosoftYaHei-35" x="140.771484"/>
      <use xlink:href="#MicrosoftYaHei-2c" x="199.414062"/>
      <use xlink:href="#MicrosoftYaHei-20" x="223.486328"/>
      <use xlink:href="#MicrosoftYaHei-3bc" x="253.076172"/>
      <use xlink:href="#MicrosoftYaHei-3d" x="315.869141"/>
      <use xlink:href="#MicrosoftYaHei-31" x="390.039062"/>
      <use xlink:href="#MicrosoftYaHei-2c" x="448.681641"/>
      <use xlink:href="#MicrosoftYaHei-20" x="472.753906"/>
      <use xlink:href="#MicrosoftYaHei-3c9" x="502.34375"/>
      <use xlink:href="#MicrosoftYaHei-3d" x="589.892578"/>
      <use xlink:href="#MicrosoftYaHei-31" x="664.0625"/>
     </g>
    </g>
    <g id="line2d_41">
     <path d="M 616.423437 67.70125 
L 626.423437 67.70125 
L 636.423437 67.70125 
" style="fill: none; stroke: #2ca02c; stroke-width: 1.5; stroke-linecap: square"/>
    </g>
    <g id="text_23">
     <!-- α=1, μ=2, ω=1 -->
     <g transform="translate(644.423437 71.20125) scale(0.1 -0.1)">
      <use xlink:href="#MicrosoftYaHei-3b1"/>
      <use xlink:href="#MicrosoftYaHei-3d" x="66.601562"/>
      <use xlink:href="#MicrosoftYaHei-31" x="140.771484"/>
      <use xlink:href="#MicrosoftYaHei-2c" x="199.414062"/>
      <use xlink:href="#MicrosoftYaHei-20" x="223.486328"/>
      <use xlink:href="#MicrosoftYaHei-3bc" x="253.076172"/>
      <use xlink:href="#MicrosoftYaHei-3d" x="315.869141"/>
      <use xlink:href="#MicrosoftYaHei-32" x="390.039062"/>
      <use xlink:href="#MicrosoftYaHei-2c" x="448.681641"/>
      <use xlink:href="#MicrosoftYaHei-20" x="472.753906"/>
      <use xlink:href="#MicrosoftYaHei-3c9" x="502.34375"/>
      <use xlink:href="#MicrosoftYaHei-3d" x="589.892578"/>
      <use xlink:href="#MicrosoftYaHei-31" x="664.0625"/>
     </g>
    </g>
    <g id="line2d_42">
     <path d="M 616.423437 83.180937 
L 626.423437 83.180937 
L 636.423437 83.180937 
" style="fill: none; stroke: #d62728; stroke-width: 1.5; stroke-linecap: square"/>
    </g>
    <g id="text_24">
     <!-- α=1, μ=1, ω=5 -->
     <g transform="translate(644.423437 86.680937) scale(0.1 -0.1)">
      <use xlink:href="#MicrosoftYaHei-3b1"/>
      <use xlink:href="#MicrosoftYaHei-3d" x="66.601562"/>
      <use xlink:href="#MicrosoftYaHei-31" x="140.771484"/>
      <use xlink:href="#MicrosoftYaHei-2c" x="199.414062"/>
      <use xlink:href="#MicrosoftYaHei-20" x="223.486328"/>
      <use xlink:href="#MicrosoftYaHei-3bc" x="253.076172"/>
      <use xlink:href="#MicrosoftYaHei-3d" x="315.869141"/>
      <use xlink:href="#MicrosoftYaHei-31" x="390.039062"/>
      <use xlink:href="#MicrosoftYaHei-2c" x="448.681641"/>
      <use xlink:href="#MicrosoftYaHei-20" x="472.753906"/>
      <use xlink:href="#MicrosoftYaHei-3c9" x="502.34375"/>
      <use xlink:href="#MicrosoftYaHei-3d" x="589.892578"/>
      <use xlink:href="#MicrosoftYaHei-35" x="664.0625"/>
     </g>
    </g>
   </g>
  </g>
 </g>
 <defs>
  <clipPath id="p25f62fca7c">
   <rect x="56.096875" y="23.248125" width="669.6" height="443.52"/>
  </clipPath>
 </defs>
</svg>
